<svg width="47" height="74" viewBox="0 0 47 74" fill="none" xmlns="http://www.w3.org/2000/svg">
<g clip-path="url(#clip0_1628_394)">
<path d="M46.9584 6.42821C46.7059 3.08222 44.6916 0.791301 41.4592 0H5.55266C2.94716 0.669791 0.885338 2.35909 0.261445 5.04714C-0.225787 23.1878 0.193113 41.4085 0.0475383 59.5788C0.255503 61.3659 2.36783 60.8472 2.36783 59.721V29.6071H10.113L13.6544 33.1428L20.3538 39.9355C21.1738 40.7624 22.1066 41.6545 22.4186 41.8827C23.2772 42.511 23.8327 42.4546 24.6646 41.8145L36.8959 29.6071H44.6411V68.3868C44.6411 69.104 43.423 70.6273 42.808 71.0334C41.0552 72.1951 39.7034 71.3949 38.2655 71.8454C37.187 72.1833 37.2673 73.8163 38.7735 73.9526C42.508 74.2904 45.6839 72.7434 46.7237 69.0151C47.2733 48.1982 46.8069 27.2806 46.9584 6.42821ZM44.6441 27.4407H38.9963C40.666 24.9215 41.177 22.2187 40.2917 19.2906C39.9589 18.194 37.9506 14.2256 36.5334 15.8112C35.6481 16.8011 37.3564 18.1081 37.8406 19.1335C39.2459 22.0942 38.4348 25.4224 35.8531 27.411L30.8441 27.4436C29.8043 26.5693 28.6219 23.8872 27.0562 25.1379C26.3491 26.2167 25.7341 27.5266 24.9884 28.5609C24.9142 28.6617 25.0152 28.8069 24.7359 28.7417L20.131 22.7195C19.7982 22.4528 18.9545 22.4409 18.6217 22.7195L15.5855 27.417H11.1558C5.27042 22.7966 9.87832 13.6685 17.166 15.6423C19.8992 16.3832 20.5885 18.6297 22.4988 19.8537C24.4091 21.0806 26.1025 18.0429 27.4127 16.97C28.6961 15.9209 30.1697 15.4052 31.8305 15.3103C32.1276 15.2926 32.4365 15.5 32.8317 15.4526C33.2803 15.3993 33.9071 14.8391 33.9161 14.3738C33.9487 12.5482 30.4906 13.1913 29.4121 13.4729C26.9849 14.1041 25.2618 15.909 23.5594 17.6102C21.5422 15.8557 19.92 13.9145 17.1452 13.3514C8.95139 11.6917 3.23831 20.6924 8.01555 27.4407H2.36783V5.55985C2.36783 4.02467 5.05948 1.9501 6.63407 2.16052L40.663 2.16941C42.1425 2.09532 44.647 4.11062 44.647 5.56282V27.4436L44.6441 27.4407Z" fill="#8AC53F"/>
<path d="M33.9664 71.8187L6.09619 71.7416C4.34632 71.5045 2.61427 70.0197 2.37957 68.2297C2.21022 66.9316 3.10447 63.0225 0.730705 63.7249C-0.211078 64.0035 -0.00311303 66.8101 0.0681891 67.6458C0.341514 70.8436 2.45087 73.3627 5.65947 73.911L33.7169 73.9555C34.6171 73.9614 34.9676 72.7374 34.4626 72.1121C34.4031 72.038 34.0615 71.8424 33.9635 71.8216L33.9664 71.8187Z" fill="#8AC53F"/>
<path d="M12.2845 49.538H38.7822C40.4756 49.3424 40.1399 47.1967 38.491 47.2264L12.1746 47.2619C10.5703 47.4635 10.6951 49.4788 12.2845 49.538Z" fill="#8AC53F"/>
<path d="M35.3746 62.0357L11.8805 61.9912C10.7189 62.332 10.7813 63.9739 11.9875 64.1339L35.0181 64.128C36.1886 64.0806 36.2718 62.5425 35.3746 62.0357Z" fill="#8AC53F"/>
<path d="M11.9931 56.7603C17.7092 56.3958 24.0224 57.2434 29.6642 56.7662C29.9316 56.7425 30.19 56.7544 30.4129 56.5736C31.2239 55.9186 30.5525 54.4753 29.5127 54.5938C24.0551 55.0414 17.626 53.9981 12.2843 54.5938C10.6265 54.7776 10.674 56.618 11.9931 56.7603Z" fill="#8AC53F"/>
<path d="M8.20577 64.1547C8.81615 64.1547 9.31095 63.6611 9.31095 63.0522C9.31095 62.4433 8.81615 61.9497 8.20577 61.9497C7.59539 61.9497 7.10059 62.4433 7.10059 63.0522C7.10059 63.6611 7.59539 64.1547 8.20577 64.1547Z" fill="#8AC53F"/>
<path d="M8.19686 49.5143C8.80293 49.5143 9.29313 49.0253 9.29313 48.4207C9.29313 47.8162 8.80293 47.3271 8.19686 47.3271C7.59079 47.3271 7.10059 47.8162 7.10059 48.4207C7.10059 49.0253 7.59079 49.5143 8.19686 49.5143Z" fill="#8AC53F"/>
<path d="M8.19686 56.8049C8.80293 56.8049 9.29313 56.3159 9.29313 55.7113C9.29313 55.1067 8.80293 54.6177 8.19686 54.6177C7.59079 54.6177 7.10059 55.1067 7.10059 55.7113C7.10059 56.3159 7.59079 56.8049 8.19686 56.8049Z" fill="#8AC53F"/>
<path d="M25.4515 4.3418L17.6706 4.36254C16.6813 4.89304 16.7259 6.0874 17.7895 6.49639C20.1305 6.2504 23.2025 6.84017 25.4515 6.49046C26.7082 6.29486 26.7141 4.5374 25.4515 4.3418Z" fill="#8AC53F"/>
<path d="M28.9518 4.3208C28.3457 4.3208 27.8525 4.81277 27.8525 5.41736C27.8525 6.02195 28.3457 6.51392 28.9518 6.51392C29.5578 6.51392 30.051 6.02195 30.051 5.41736C30.051 4.81277 29.5578 4.3208 28.9518 4.3208Z" fill="#8AC53F"/>
</g>
<defs>
<clipPath id="clip0_1628_394">
<rect width="47" height="74" fill="white"/>
</clipPath>
</defs>
</svg>
