<svg width="74" height="74" viewBox="0 0 74 74" fill="none" xmlns="http://www.w3.org/2000/svg">
<path d="M30.1294 47.418C29.584 52.0752 25.8493 53.1078 22.0405 53.8002C16.8683 54.7411 11.6309 55.4246 6.42899 56.1909C6.09998 57.3863 5.65835 58.5372 4.68318 59.3598C4.26822 59.7119 3.29009 60.422 2.7951 60.0107L2.56686 59.4486C2.91662 55.9512 2.12522 51.5929 2.56686 48.2021C2.73285 46.918 4.81953 47.7287 5.76505 47.4772L21.1039 45.0983L21.344 44.8675L21.3677 38.4351C19.9865 37.4616 19.0558 36.1746 18.8601 34.4466C19.2158 28.9343 18.377 22.8037 18.8601 17.3654C19.1506 14.0929 21.8953 11.362 25.052 10.8087C25.1765 10.6341 25.1557 7.69895 25.1172 7.24033C24.9245 4.98276 23.7241 3.07432 25.7634 1.086C27.8026 -0.902319 29.1927 0.396599 31.1609 0.659933C31.7981 0.745739 33.541 0.432105 33.8107 0.988361C33.9767 1.3375 33.9322 3.55365 33.8166 4.00043C33.4847 5.27272 32.3287 5.3319 32.0856 5.73134C31.9404 5.971 31.9937 7.1782 31.7714 7.78771C31.2913 9.10438 29.7263 9.34996 30.1234 11.0187C33.4609 12.0395 35.4913 15.1995 35.1445 18.7087L37.2549 16.6582C37.4653 16.173 35.9359 14.8977 37.409 13.9598C38.2034 13.4538 38.9118 13.7379 39.4483 14.4362C40.0026 13.7497 40.6487 13.4065 41.5231 13.7675C41.781 13.874 44.7806 16.9068 44.8873 17.1671C45.1007 17.6879 45.0681 18.2057 44.6946 18.6288L38.2745 25.1914L43.0229 26.1531C43.6424 25.079 43.7135 23.9428 45.1511 24.9666C46.2003 25.7152 45.901 26.7981 46.0195 26.9431C46.2715 27.2478 47.8009 27.1975 47.5193 28.5083C48.6605 28.3751 50.2729 28.7154 51.3489 28.5142C51.5237 28.4816 51.6482 28.4373 51.7283 28.2627C52.5641 26.6768 53.0265 24.1825 53.9039 22.709C54.0224 22.5078 54.1054 22.2918 54.3573 22.2178L68.4128 22.1912C68.8337 22.2593 69.0471 22.5995 68.9374 23.0138L66.7707 28.5142H73.582C74.1541 28.5142 74.0089 30.9108 73.8962 31.3635C73.6739 31.8162 70.9796 32.4494 70.369 32.3103C70.3927 32.7571 70.3394 33.2157 70.3631 33.6625C70.867 42.9029 71.8214 52.4007 72.5654 61.6558C72.6928 63.2477 72.8944 62.3985 73.6621 62.7654C73.8399 62.8512 73.9436 63.0524 73.9703 63.2447L73.9822 73.3727L73.6621 74L0.293456 73.9349C0.103758 73.784 0.0948696 73.5946 0.0652293 73.3727C-0.0147995 72.7514 -0.0325902 70.1417 0.0770789 69.5736C0.109683 69.399 0.346805 69.0144 0.465366 69.0144H41.4075C41.3956 68.3694 41.446 67.7214 41.369 67.0764C40.6428 61.1736 37.9959 54.5902 37.0978 48.6075L31.1549 38.7931L30.1353 38.4795V47.418H30.1294ZM26.371 7.46816V10.7909H28.8756V10.1577C28.4873 10.1636 27.9004 10.2524 27.6959 9.84113C27.2128 8.86768 28.6088 8.88543 29.1839 8.65168C30.4525 8.13981 30.8822 6.90007 30.7251 5.59227L29.3439 4.7786C29.2431 5.94141 28.4162 5.35853 27.6841 5.7195C27.8915 7.05393 27.7522 7.35572 26.3651 7.46816H26.371ZM33.8848 24.2387V17.0399C33.8848 15.9452 32.6844 14.0989 31.8515 13.4006C29.4121 11.3531 24.1865 11.5276 21.9012 13.7911C21.2402 14.445 20.108 16.4511 20.108 17.3595V29.7776H26.8393L25.1113 28.597C23.4425 26.7419 23.2676 24.9459 23.8634 22.5759C24.6607 19.404 26.125 16.0546 27.1505 12.9242C27.6633 12.6875 28.2769 12.9124 28.2472 13.5426L26.4332 19.3419L30.5058 20.7473C31.1105 20.5934 31.4128 15.6996 32.9215 17.5518L31.066 23.6055L33.8848 24.2387ZM35.1475 24.5494L36.7866 24.7299L43.5238 17.9128C43.6276 17.7944 43.5861 17.7204 43.5238 17.5991C43.1711 16.9068 41.3601 15.6789 40.8532 14.9125C40.296 15.3534 39.6735 16.5783 38.9088 15.9274C38.5769 15.6463 38.5917 15.025 38.1145 15.0693C38.1915 15.67 38.8614 16.4925 38.6272 17.0784C38.2804 17.9483 35.3787 20.0106 35.1712 20.7177L35.1475 24.5553V24.5494ZM44.6887 26.298C43.835 26.4608 44.1878 27.8603 43.0525 27.5674L29.9308 24.6825C28.926 24.221 30.411 22.5167 30.0671 22.0196L25.9946 20.5964C24.6933 23.4102 23.8605 26.6916 27.1565 28.4313L45.2341 32.6269L46.2596 28.3515L44.6798 27.9343L44.6917 26.2951L44.6887 26.298ZM67.3902 23.4487H55.0984L52.985 28.5112H65.2768L67.3902 23.4487ZM72.7136 29.7776H56.4292V31.044H71.2256C71.3976 31.044 72.3549 30.5469 72.6928 30.5469L72.7136 29.7776ZM28.6711 38.0475C28.4843 37.8285 27.7107 37.4823 27.3906 37.2072C26.4184 36.3728 25.7426 35.4141 25.3899 34.1655C25.1972 33.4879 25.1972 31.8369 24.6933 31.6949C23.2558 31.2925 24.1005 34.2513 24.3288 34.923C24.9008 36.5947 26.6704 38.7961 28.4488 39.086C28.9052 38.8996 28.9971 38.4292 28.6711 38.0475ZM47.6557 32.3163L46.7131 32.3754C46.3456 32.6358 46.7902 33.9347 45.0799 33.8992C43.266 33.8608 39.5342 32.6121 37.5157 32.1979C37.1808 32.1299 36.7006 31.9375 36.3924 32.0677C38.7132 35.5414 41.3127 38.8641 43.5653 42.3821C44.7183 44.1841 45.1511 45.0776 45.7113 47.1754C47.0332 52.1521 47.8809 57.3981 49.1051 62.4163L49.3333 62.6618L50.018 62.6825L47.6616 32.3163H47.6557ZM65.1998 32.3074H52.8309C52.8487 32.8577 52.8012 33.4169 52.8309 33.9673C53.3466 43.1751 54.2862 52.451 55.0243 61.6529C55.0361 61.8186 55.1487 62.6411 55.1873 62.6766C55.2377 62.724 56.4322 62.5997 56.4322 63.079V69.0114H59.328C61.6933 67.2983 63.946 64.7182 66.3083 63.0938C66.7292 62.8068 66.9811 62.5879 67.5473 62.6825L65.1998 32.3074ZM69.0174 32.121L66.4802 32.3251L68.8989 62.8719L71.4361 62.6678L69.0174 32.121ZM48.7613 66.4817L44.1077 46.1073C43.3519 44.1811 42.1159 42.4946 40.8562 40.882L36.1078 44.4089L38.3131 48.1637L42.4953 66.4817H48.7583H48.7613ZM28.8756 44.9652H22.6126C22.6926 45.9357 22.583 46.1162 21.6819 46.3174C17.1262 47.3322 11.8502 47.8264 7.17 48.5838C6.89138 48.6282 6.60683 48.6045 6.32822 48.6045V54.9334C11.7909 53.9748 17.3485 53.383 22.7964 52.3533C24.5125 52.0279 25.7308 51.9332 27.0764 50.6668C28.677 49.1608 28.9912 47.0926 28.8726 44.9681L28.8756 44.9652ZM72.7136 63.9489H67.3131L60.1906 70.0411V72.8106H72.7165V63.9519L72.7136 63.9489ZM49.7394 65.4135C48.8294 66.3367 50.7975 66.5911 51.2155 66.7687C51.6097 66.9373 52.0691 67.1977 52.4129 67.4581C53.2666 68.109 53.8683 69.9287 54.796 69.1742C55.2021 68.5114 53.7912 66.9876 53.2903 66.5763C52.7005 66.0911 50.3322 64.8188 49.7424 65.4135H49.7394ZM58.9368 70.2778H17.6034V72.8106H58.9368V70.2778Z" fill="#8AC53F"/>
</svg>
