<svg width="74" height="74" viewBox="0 0 74 74" fill="none" xmlns="http://www.w3.org/2000/svg">
<g clip-path="url(#clip0_1628_372)">
<path d="M72.2734 57.9057L73.4077 56.7442L65.7341 48.786L65.7153 48.6923C65.6558 48.3395 65.9597 48.0742 66.3138 47.7651C66.9248 47.2374 67.3728 46.7785 67.1566 46.1135C67.0344 45.7357 65.9284 44.7241 65.12 43.9873C63.7444 42.7322 63.1773 42.1796 63.1366 41.7706L63.1303 41.702L63.1522 41.6364C65.2234 35.72 64.5967 29.3291 61.4352 24.1027C58.5431 19.3259 53.6739 15.9509 48.0746 14.8457C42.5224 13.7529 36.7852 15.008 32.3328 18.2925L32.1103 18.4548L31.9192 18.2612C30.7504 17.0623 29.4093 16.2537 28.0432 15.9197L27.874 15.8759C27.6641 15.8229 27.1032 15.6824 27.0029 15.673H23.5061L24.3521 15.1017C28.3503 12.4042 28.7795 8.03012 27.4291 4.89241C26.2165 2.07003 23.0393 -0.849135 18.0761 0.227989C14.9365 0.908607 12.6241 3.35633 12.0381 6.61893C11.4334 9.99392 12.8497 13.3221 15.6446 15.0985L16.5501 15.673H12.8371C10.2177 15.673 7.53553 18.4486 6.33546 21.0586C4.47113 25.1205 1.76706 31.5145 0.272455 36.1634C-0.576679 38.814 0.701722 40.5187 2.05532 41.1743C3.43086 41.8425 5.47693 41.7301 6.72713 39.913L10.7159 30.887L10.6595 32.5105C10.5874 34.5555 10.6313 36.6754 10.672 38.7235C10.719 41.012 10.7691 43.3754 10.6595 45.6639C10.4777 49.426 10.0359 53.3099 9.6098 57.0627C9.17113 60.9372 8.7168 64.946 8.5476 68.8174C8.4724 70.5439 8.53506 71.9613 10.0171 73.1384C11.0229 73.9345 12.3045 74.1968 13.5327 73.8502C14.7892 73.4974 15.8107 72.5545 16.2713 71.3244L19.5675 47.5965L19.7493 47.534C19.9153 47.481 20.0783 47.4966 20.2099 47.584C20.4981 47.7713 20.5326 48.1959 20.5639 48.5675C20.5733 48.6486 20.5796 48.7236 20.589 48.7798C21.1593 52.0517 21.5603 55.4173 21.9489 58.6768C22.4659 63.0228 23.0048 67.5155 23.9479 71.8208C24.6122 73.0447 25.8123 73.8502 27.169 73.9813C28.4975 74.1062 29.754 73.5723 30.6157 72.5108C31.5181 71.3962 31.5243 70.3784 31.4554 68.8174C31.3175 65.6984 30.9541 62.517 30.6063 59.4386C30.2867 56.6474 29.9577 53.7626 29.7979 50.9278C29.7822 50.6717 29.7885 50.4157 29.7947 50.166C29.7979 49.9911 29.801 49.8163 29.7979 49.6415L29.7853 49.0108L30.2961 49.3823C30.6721 49.6571 31.0449 49.9412 31.4147 50.2253C32.2952 50.8997 33.2038 51.5959 34.1846 52.1485C39.3264 55.0489 45.3674 55.5453 51.1986 53.5472L51.3176 53.5066L51.4304 53.5566C52.0634 53.8407 52.8718 54.7367 53.7272 55.6858C54.451 56.4913 55.2719 57.4061 55.6918 57.5372C56.3842 57.7527 56.6662 57.4405 57.0955 56.9628C57.3556 56.6724 57.6532 56.3415 58.0856 56.1292L58.2862 56.0324L66.248 63.7908L67.5201 62.6263L59.5489 54.6493L64.2583 49.9568L72.2734 57.9057ZM13.6737 8.14251C13.6737 4.66761 16.5125 1.83587 20.0031 1.83587C23.4936 1.83587 26.3324 4.66761 26.3324 8.14251C26.3324 11.6174 23.4936 14.4523 20.0031 14.4523C16.5125 14.4523 13.6737 11.6205 13.6737 8.14251ZM27.7581 72.1612C26.8024 72.2798 25.6462 71.7334 25.3736 70.2629C24.6905 66.6257 24.2738 62.7886 23.8696 59.0796C23.4372 55.0926 22.9891 50.9746 22.2152 47.1094C22.1964 47.0283 22.1839 46.944 22.1682 46.8565C22.0742 46.3133 21.9927 45.9699 21.6512 45.8263C21.2533 45.6577 19.0662 45.5078 18.2139 45.973C18.0667 46.051 17.9852 46.1385 17.9695 46.229C17.2959 50.1191 16.8071 54.1154 16.3371 57.9806C15.9015 61.546 15.4535 65.2301 14.8581 68.8299C14.8393 68.9423 14.8205 69.0609 14.8017 69.1796C14.6169 70.4003 14.338 72.2111 12.5583 72.2111C12.4486 72.2111 12.3327 72.2017 12.2105 72.1893C10.0767 71.9364 10.3054 69.5386 10.4401 68.1087C10.4589 67.9182 10.4777 67.7403 10.4871 67.5779C10.7065 64.4277 11.0574 61.1839 11.3958 58.0493C11.8282 54.0561 12.2731 49.9287 12.4549 45.9449C12.6147 42.3607 12.5395 38.6423 12.4643 35.0425C12.4016 32.0234 12.3358 28.9045 12.4141 25.876C12.317 25.517 11.9943 25.3422 11.7185 25.2953C11.4271 25.2516 11.0198 25.3234 10.8005 25.6731L5.11346 38.9826L5.08526 39.017C4.54319 39.657 3.74419 39.8818 3.00159 39.607C2.21826 39.3136 1.71692 38.5611 1.72632 37.6838V37.6245L1.74826 37.5683L8.54446 20.6621C9.6474 18.8544 11.3331 17.7336 13.2946 17.4994C14.3537 17.3714 15.466 17.3308 16.6003 17.3308C17.8442 17.3308 19.1132 17.3808 20.3571 17.4339C22.3844 17.5151 24.4806 17.6025 26.3888 17.4589H26.4233H26.4577C28.2406 17.7274 29.5472 18.3518 30.3399 19.3196L30.4997 19.5132L30.3462 19.7099C29.9702 20.1876 29.5597 20.6403 29.1649 21.0774C28.6542 21.6456 28.1247 22.2294 27.6766 22.8601C22.7635 29.788 22.6539 39.0326 27.4103 45.8637L27.4541 45.9262L27.4635 46.0042C28.0213 50.4751 28.3973 55.0552 28.7607 59.4886C29.0333 62.8292 29.3185 66.2854 29.6788 69.6666C29.7697 71.1434 28.7795 72.0363 27.7581 72.1612ZM44.1392 52.9321C33.9934 52.9321 25.7402 44.7085 25.7402 34.5992C25.7402 24.4898 33.9934 16.2662 44.1392 16.2662C54.2849 16.2662 62.535 24.4898 62.535 34.5992C62.535 44.7085 54.2818 52.9321 44.1392 52.9321Z" fill="#8AC53F"/>
<path d="M73.9998 0.0405273H63.7632V1.82012H73.9998V0.0405273Z" fill="#8AC53F"/>
<path d="M73.9998 4.85156H63.7632V6.63116H73.9998V4.85156Z" fill="#8AC53F"/>
<path d="M73.9998 9.65967H63.7632V11.4424H73.9998V9.65967Z" fill="#8AC53F"/>
<path d="M60.7242 0.0405273H58.9351V1.82012H60.7242V0.0405273Z" fill="#8AC53F"/>
<path d="M60.7242 4.85156H58.9351V6.63116H60.7242V4.85156Z" fill="#8AC53F"/>
<path d="M60.7242 9.65967H58.9351V11.4424H60.7242V9.65967Z" fill="#8AC53F"/>
<path d="M44.1329 19.2632C35.6446 19.2632 28.7388 26.1443 28.7388 34.6021C28.7388 43.0598 35.6446 49.9409 44.1329 49.9409C52.6211 49.9409 59.5269 43.0598 59.5269 34.6021C59.5269 26.1443 52.6211 19.2632 44.1329 19.2632ZM44.1329 48.1239C36.6473 48.1239 30.5592 42.0576 30.5592 34.6021C30.5592 27.1465 36.6473 21.0802 44.1329 21.0802C51.6184 21.0802 57.7033 27.1465 57.7033 34.6021C57.7033 42.0576 51.6153 48.1239 44.1329 48.1239Z" fill="#8AC53F"/>
<path d="M52.2703 32.0298C52.2327 31.7863 51.888 31.3398 51.747 31.3055H47.4481V27.0126C47.4136 26.8815 46.9687 26.5412 46.7243 26.5037C45.7843 26.357 42.9423 26.3882 41.8237 26.4881C41.407 26.5256 40.8336 26.7972 40.8336 27.0126V31.3086H36.5221C36.3905 31.3398 36.049 31.7832 36.0114 32.0298C35.8641 32.9633 35.8955 35.7982 35.9957 36.9128C36.0333 37.3249 36.3059 37.8994 36.5221 37.8994H40.8336V42.1954C40.8649 42.3234 41.313 42.6668 41.5574 42.7043C42.4943 42.851 45.3393 42.8167 46.4579 42.7168C46.8715 42.6793 47.4481 42.4108 47.4481 42.1954V37.8994H51.7595C51.9757 37.8994 52.2452 37.3249 52.2828 36.9128C52.3862 35.7982 52.4175 32.9633 52.2703 32.0298Z" fill="#8AC53F"/>
</g>
<defs>
<clipPath id="clip0_1628_372">
<rect width="74" height="74" fill="white"/>
</clipPath>
</defs>
</svg>
