<svg width="74" height="74" viewBox="0 0 74 74" fill="none" xmlns="http://www.w3.org/2000/svg">
<path d="M45.7064 36.859C60.375 29.8512 76.7233 42.9881 72.9693 58.9969C70.1234 71.1298 56.627 77.5608 45.4957 71.9516C45.0565 73.0931 44.0801 73.8044 42.8872 73.9956H2.82512C1.24044 73.7625 0.0504485 72.5014 0 70.8698V2.99455C0.142443 1.37783 1.35617 0.152595 2.96459 0.00616353H42.7447C43.8457 -0.113372 45.7034 1.53323 45.7034 2.56123V36.859H45.7064ZM42.2343 39.0435C42.7032 38.6101 43.905 38.141 43.9792 37.5224L43.8605 2.6718L42.9643 1.82609L3.25245 1.75437C2.59068 1.71552 2.09806 2.22952 1.80428 2.77341L1.84879 71.336C2.17225 71.8261 2.61442 72.2952 3.25245 72.2534L42.7062 72.2116C43.1691 72.1907 44.089 71.4555 43.7982 70.9594C43.7389 70.8578 42.1809 69.8597 41.8752 69.6206C41.4924 69.3218 41.1007 68.9154 40.7149 68.6046C38.7534 66.5874 37.6049 64.6719 37.6049 64.6719L36.3585 62.332L3.91124 62.2662L3.5492 61.9016V7.44426C3.751 7.13646 4.01808 6.95416 4.40386 6.996L41.7951 7.07968C41.8841 7.16036 42.2313 7.47414 42.2313 7.51299V39.0435H42.2343ZM5.21103 8.75018V11.6639H40.4983V8.75018H5.21103ZM40.4983 13.4121H5.21103V27.9745H9.76624C10.4695 27.4754 12.805 24.5767 13.3896 24.4781C14.3244 24.3197 18.8114 26.7821 19.2446 26.5909C20.1883 25.9125 24.2717 21.0982 24.9601 20.9846C25.9335 20.8203 29.9694 23.1602 30.5659 23.0078L35.222 16.3257H40.5013V13.4121H40.4983ZM40.4983 34.3816H5.21103V60.5957H35.7264C33.2604 53.6746 35.3021 45.6329 40.4983 40.5705V34.3816ZM71.714 54.4785C71.714 44.6766 63.8233 36.7304 54.0897 36.7304C44.3561 36.7304 36.4654 44.6766 36.4654 54.4785C36.4654 64.2804 44.3561 72.2265 54.0897 72.2265C63.8233 72.2265 71.714 64.2804 71.714 54.4785Z" fill="#8AC53F"/>
<path d="M51.3147 40.1475C53.2348 40.0041 53.8906 43.0164 55.7305 43.9308C57.2973 44.7078 59.1995 43.8023 60.2441 45.0634C61.5825 46.6831 59.2648 50.051 61.4312 50.7115C64.0307 51.5064 67.3069 50.4903 68.58 53.9957C68.9272 54.955 68.9955 58.3558 68.8322 59.4017C68.669 60.4476 67.6066 61.4009 66.6036 61.5265C65.1465 61.7058 59.6565 61.7058 58.3152 61.4219C57.0065 61.1439 53.849 58.9086 52.5136 58.0898C51.0239 57.1784 45.2936 53.8851 44.5487 52.8571C43.8484 51.8919 43.8365 51.0731 44.3232 50.0122C46.3174 47.3764 47.813 43.5065 49.8399 41.0022C50.2316 40.5181 50.6708 40.1924 51.3147 40.1445V40.1475ZM59.3717 56.2848H67.1081C67.5206 50.6637 60.1937 54.6442 58.796 50.314C58.3568 48.9543 59.0512 47.4661 58.8642 46.0944C56.3922 46.5546 54.3832 45.5356 52.7896 43.6948C52.4246 43.2734 51.751 41.9286 51.2851 42.0063L47.3026 48.8557L59.3717 56.2908V56.2848Z" fill="#8AC53F"/>
<path d="M42.1931 59.8111L49.6803 59.7842C50.4251 59.9246 50.5883 60.9795 49.9829 61.3919L42.3118 61.5234C41.4542 61.2634 41.3978 60.1966 42.1931 59.8111Z" fill="#8AC53F"/>
<path d="M39.8776 56.3153C40.2308 56.2137 43.4684 56.2077 43.8928 56.2884C44.7919 56.4587 44.7801 57.8633 43.8928 58.0276C43.3942 58.1203 40.4949 58.1203 39.9963 58.0276C39.1358 57.8662 39.115 56.5334 39.8776 56.3153Z" fill="#8AC53F"/>
<path d="M8.64103 36.5081L15.9946 36.4692C16.4694 36.4991 16.7306 36.8159 16.7899 37.2701C16.9769 38.7404 16.9383 42.7568 16.7899 44.2779C16.7365 44.8278 16.6 45.1445 15.9917 45.2222C14.5435 45.4105 10.5343 45.3687 9.03274 45.2222C8.48671 45.1684 8.17215 45.031 8.09499 44.4183C7.81604 42.2548 8.3235 39.4995 8.09499 37.2671L8.63806 36.5051L8.64103 36.5081ZM15.045 38.2264H9.83992V43.468H15.045V38.2264Z" fill="#8AC53F"/>
<path d="M8.64103 48.1595L15.9946 48.1206C16.4694 48.1505 16.7306 48.4673 16.7899 48.9215C16.9769 50.3918 16.9383 54.4082 16.7899 55.9293C16.7365 56.4791 16.6 56.7959 15.9917 56.8736C14.5435 57.0619 10.5343 57.02 9.03274 56.8736C8.48671 56.8198 8.17215 56.6823 8.09499 56.0697C7.81604 53.9061 8.3235 51.1508 8.09499 48.9185L8.63806 48.1565L8.64103 48.1595ZM15.045 49.8778H9.83992V55.1194H15.045V49.8778Z" fill="#8AC53F"/>
<path d="M20.2115 37.6738L31.3844 37.7187C32.1263 38.2088 31.9571 39.2786 31.0342 39.3981C27.8322 39.8105 23.7607 39.0664 20.4608 39.3981C19.5053 39.2846 19.3539 38.0922 20.2086 37.6738H20.2115Z" fill="#8AC53F"/>
<path d="M20.2115 42.3354L31.3844 42.3803C32.1263 42.8704 31.9571 43.9402 31.0342 44.0597C27.8322 44.4721 23.7607 43.728 20.4608 44.0597C19.5053 43.9462 19.3539 42.7538 20.2086 42.3354H20.2115Z" fill="#8AC53F"/>
<path d="M20.2115 49.3252L31.3844 49.37C32.1263 49.8601 31.9571 50.93 31.0342 51.0495C27.8322 51.4619 23.7607 50.7178 20.4608 51.0495C19.5053 50.9359 19.3539 49.7436 20.2086 49.3252H20.2115Z" fill="#8AC53F"/>
<path d="M20.2115 53.9839L31.3844 54.0287C32.1263 54.5188 31.9571 55.5887 31.0342 55.7082C27.8322 56.1206 23.7607 55.3765 20.4608 55.7082C19.5053 55.5946 19.3539 54.4023 20.2086 53.9839H20.2115Z" fill="#8AC53F"/>
</svg>
