<svg width="65" height="74" viewBox="0 0 65 74" fill="none" xmlns="http://www.w3.org/2000/svg">
<g clip-path="url(#clip0_1628_382)">
<path d="M64.9911 1.99208C64.8836 0.9768 64.4478 0.35816 63.5881 0H53.7766C53.4692 0.26048 53.3647 0.7252 53.5408 1.07152C53.6095 1.12776 53.7438 1.23432 53.8363 1.29648H63.5404V26.6696H6.77879V1.29648H49.2694C49.3918 1.29648 49.5261 1.08336 49.5679 0.81992C49.6037 0.59496 49.5798 0.15096 49.2604 0.00296H1.41188C0.510424 0.37592 0.095518 1.00344 0 2.146V25.8497C0.128352 27.2054 0.752204 27.9187 1.85663 27.969H63.0299C64.209 27.969 64.8717 27.2498 65 25.8349L64.9911 1.99208Z" fill="#8AC53F"/>
<path d="M56.5765 34.6706C56.46 33.1877 56.0183 32.7762 54.4303 32.6697L23.4377 32.6756C22.8855 32.7437 22.5362 33.0219 22.5243 33.4008C22.5153 33.682 22.7094 34.0224 23.1571 34.1201H55.1138V50.406H14.9037V34.1201H17.9991C18.1155 34.0638 18.3364 33.9425 18.42 33.8892C18.5931 33.7057 18.6439 33.5103 18.5752 33.3061C18.4678 32.9953 18.1185 32.7407 17.7215 32.6874H9.88904C9.51593 32.7348 8.39061 32.2997 8.39061 33.5192L8.28613 50.7109C8.36076 51.0453 8.84133 51.5219 9.20251 51.6403L55.0332 51.7054C56.0511 51.6965 56.5436 50.7641 56.5735 49.8939V34.6765L56.5765 34.6706Z" fill="#8AC53F"/>
<path d="M46.7258 44.5837C46.69 44.6903 46.5706 44.933 46.2989 44.9656H19.4464C18.9241 44.9005 18.8763 44.5245 18.8823 44.3617C18.8882 44.0421 19.1151 43.6839 19.5688 43.6602L45.8751 43.6543C46.1139 43.6573 46.5228 43.7845 46.6153 43.8645C46.8064 44.0539 46.8094 44.3647 46.7288 44.5837H46.7258Z" fill="#8AC53F"/>
<path d="M33.1716 39.4241C33.1776 39.7379 32.9806 40.0753 32.5239 40.1286C32.5239 40.1286 20.3513 40.0605 19.5782 40.1256C19.2021 40.0694 18.9484 39.877 18.8917 39.6017C18.8499 39.3856 18.9335 39.0837 19.2857 38.8587L32.5597 38.8262C33.1179 38.8706 33.1687 39.2939 33.1716 39.4241Z" fill="#8AC53F"/>
<path d="M56.5765 56.968C56.46 55.485 56.0183 55.0736 54.4303 54.967L23.4377 54.9729C22.8855 55.041 22.5362 55.3193 22.5243 55.6981C22.5153 55.9793 22.7094 56.3197 23.1571 56.4174H55.1138V72.7033H14.9037V56.4174H17.9991C18.1155 56.3612 18.3364 56.2398 18.42 56.1865C18.5931 56.003 18.6439 55.8077 18.5752 55.6034C18.4678 55.2926 18.1185 55.0381 17.7215 54.9848H9.88904C9.51593 55.0321 8.39061 54.597 8.39061 55.8165L8.28613 73.0082C8.36076 73.3427 8.84133 73.8193 9.20251 73.9377L55.0332 74.0028C56.0511 73.9939 56.5436 73.0615 56.5735 72.1913V56.9739L56.5765 56.968Z" fill="#8AC53F"/>
<path d="M46.7258 66.8811C46.69 66.9877 46.5706 67.2304 46.2989 67.2629H19.4464C18.9241 67.1978 18.8763 66.8219 18.8823 66.6591C18.8882 66.3394 19.1151 65.9813 19.5688 65.9576L45.8751 65.9517C46.1139 65.9546 46.5228 66.0819 46.6153 66.1618C46.8064 66.3513 46.8094 66.6621 46.7288 66.8811H46.7258Z" fill="#8AC53F"/>
<path d="M33.1716 61.7219C33.1776 62.0357 32.9806 62.3731 32.5239 62.4264C32.5239 62.4264 20.3513 62.3583 19.5782 62.4235C19.2021 62.3672 18.9484 62.1748 18.8917 61.8995C18.8499 61.6835 18.9335 61.3815 19.2857 61.1566L32.5597 61.124C33.1179 61.1684 33.1687 61.5917 33.1716 61.7219Z" fill="#8AC53F"/>
<path d="M26.6855 11.5914C26.3213 10.6531 25.5004 9.97526 24.4229 9.72662C24.2109 9.6763 23.9513 9.65262 23.6707 9.62302C23.005 9.5579 22.2469 9.4839 21.7215 9.03694C21.3215 8.69358 21.0648 8.1075 20.8141 7.53918C20.6469 7.15734 20.4768 6.76366 20.2858 6.51502C19.7246 5.77206 18.8261 5.33398 17.8769 5.33398H17.8292C16.2143 5.35766 15.7994 6.16278 15.2323 7.27574C15.0263 7.6783 14.8144 8.0927 14.5248 8.50118C13.8652 9.43358 12.9398 9.54014 12.122 9.63782C11.7578 9.67926 11.3847 9.72366 11.0324 9.83614C10.0892 10.1381 9.4176 10.7774 9.13701 11.6388C8.82658 12.6067 9.0594 13.7315 9.75191 14.6491C9.87429 14.8119 10.131 15.0487 10.3758 15.2766C10.8623 15.7206 11.316 16.1469 11.4444 16.5494C11.6861 17.3309 11.5548 18.0146 11.4235 18.6747C11.2533 19.5538 11.1041 20.3116 11.7757 21.3269C12.5309 22.4694 13.8801 22.8897 15.2979 22.425C15.5725 22.3362 15.883 22.1409 16.1815 21.9544C16.5217 21.7413 16.8382 21.54 17.1575 21.4541C18.1306 21.1966 18.9336 21.5992 19.7097 21.9869C20.5574 22.4102 21.3633 22.8128 22.4737 22.4901C23.9542 22.058 24.6199 20.9598 24.5154 19.1305C24.5035 18.9026 24.4438 18.6333 24.3811 18.355C24.2706 17.8548 24.1602 17.3457 24.2497 16.8661C24.3811 16.1735 25.0049 15.6081 25.5572 15.1109C25.8497 14.8474 26.1243 14.5958 26.2795 14.3738C26.8884 13.5095 27.0377 12.4942 26.6855 11.5885V11.5914Z" fill="#8AC53F"/>
<path d="M56.9196 18.947C56.8749 19.3051 56.5107 19.6633 55.8033 19.6159H31.4253C30.6462 19.5538 30.2343 19.243 30.1806 18.9884C30.1298 18.7516 30.3686 18.4526 30.8044 18.1981L56.1704 18.1655C56.7793 18.2928 56.9584 18.651 56.9196 18.947Z" fill="#8AC53F"/>
<path d="M56.9049 13.9833C56.9049 14.0484 56.887 14.6167 56.3646 14.6315H30.7897C30.3509 14.6315 30.2643 14.2023 30.2464 14.0691C30.2136 13.7909 30.3091 13.4564 30.5986 13.3646L56.3497 13.3291C56.89 13.3469 56.9049 13.9152 56.9049 13.9803V13.9833Z" fill="#8AC53F"/>
<path d="M39.1978 9.09303C39.1978 9.38311 38.9948 9.72055 38.553 9.79159C37.4038 9.97215 32.025 9.97215 30.8788 9.79159C30.4161 9.72055 30.2012 9.38015 30.2012 9.09599C30.2042 8.73191 30.5235 8.46551 31.0519 8.38263C32.3593 8.18431 37.0785 8.18431 38.3709 8.38263C38.8873 8.46255 39.1918 8.72895 39.1948 9.09303H39.1978Z" fill="#8AC53F"/>
</g>
<defs>
<clipPath id="clip0_1628_382">
<rect width="65" height="74" fill="white"/>
</clipPath>
</defs>
</svg>
