<svg width="109" height="109" viewBox="0 0 109 109" fill="none" xmlns="http://www.w3.org/2000/svg">
<rect width="109" height="109" rx="20" fill="#8AC53F"/>
<path d="M85.1737 54.9597C84.9026 54.6097 84.5717 54.2621 84.2159 53.9169C83.8602 53.5693 83.4771 53.2266 83.0989 52.8889C82.3924 52.2578 81.6635 51.6045 81.0962 50.929C80.8226 50.6898 80.4619 50.6011 80.1061 50.6874C79.7454 50.7736 79.4667 51.0226 79.3399 51.3702C79.0861 52.063 79.4742 52.4796 80.1285 53.1009C80.2653 53.2291 80.4021 53.3598 80.529 53.4929L80.7778 53.7542L78.392 56.1012L78.1134 55.8842C77.9716 55.7733 77.8298 55.6623 77.6855 55.5563C76.8396 54.9326 75.9565 54.3927 75.0509 53.9465C74.5036 53.6753 73.9439 53.4337 73.3866 53.234L73.1801 53.1601L73.1453 52.9456C72.5581 49.3364 71.0431 45.5645 68.6424 41.7358L68.401 41.3463C67.6149 40.0693 66.6372 38.4841 65.4033 38.4225C64.7813 38.3904 64.1519 38.7627 63.5374 39.5368L63.0996 40.0865L62.8881 39.4184C61.7985 35.9695 57.313 24.666 45.2596 24.0201C43.9386 23.9462 40.0975 24.062 38.9581 24.6019C38.458 24.8411 38.0973 25.27 37.9405 25.8124C37.7714 26.4164 37.8759 27.0968 38.2266 27.6293C38.5152 28.0731 38.7889 28.4552 39.0476 28.8127C39.789 29.8432 40.4234 30.7258 40.8338 32.3381C41.9956 36.9162 40.1995 39.448 37.9231 42.6529C37.433 43.3432 36.9529 44.0212 36.4827 44.741C35.0622 46.9204 33.8631 49.0923 32.9177 51.1952L32.45 52.2405L32.2112 51.1213C32.144 50.8008 31.9798 50.5099 31.7136 50.2288C31.2882 49.7801 30.7931 49.5656 30.2334 49.5928C29.5667 49.6273 28.8925 50.0217 28.385 50.6775C26.034 53.7148 24.2378 59.6414 24.0338 63.2703C23.5412 72.0369 28.4447 79.709 37.841 84.8787L37.8684 84.8935L38.8984 84.8836C39.3014 84.7135 39.6298 84.4941 39.8785 84.2328L39.9233 84.1835C40.2865 83.7742 40.4482 83.2763 40.406 82.6994C40.3612 82.0436 39.8313 81.4223 39.3213 80.8183C39.1073 80.5669 38.8834 80.2982 38.6968 80.0344L38.3834 79.5832L38.9257 79.4649C39.8387 79.2627 40.5527 78.8461 40.9334 78.2889C41.2767 77.786 41.3538 77.1598 41.1573 76.4745C41.0304 76.0381 40.7841 75.8507 40.5503 75.6683C40.4308 75.5796 40.3064 75.4834 40.197 75.3528C38.6023 73.4126 37.846 70.6761 38.0625 67.6437L38.1023 67.1162L38.5899 67.3331C39.6099 67.7892 40.6224 67.8139 41.3016 67.4021C42.4559 66.6971 42.2693 65.4299 41.9285 63.968L41.9136 63.9063C41.8389 63.5883 41.7693 63.2875 41.7344 63.0139C41.2717 59.4614 41.2543 53.1428 46.3269 50.7169L46.8444 50.4704L46.8618 51.0374C46.9538 54.0229 48.352 56.7816 50.7925 58.8081C51.7378 59.5896 52.6285 60.233 53.6136 60.9356L53.8624 61.1156L53.733 61.3917C53.4494 61.9982 53.2056 62.6244 53.0091 63.2506C52.9146 63.5489 52.8275 63.857 52.7454 64.1997C52.3697 65.7405 52.2304 67.3109 52.3274 68.8715C52.412 70.2274 52.6807 71.5734 53.1235 72.8702C53.1982 73.06 53.2728 73.2646 53.345 73.4717C53.3499 73.4791 53.3549 73.4964 53.3599 73.5161C53.4022 73.6221 53.4445 73.7281 53.4892 73.8317C53.9271 74.8794 54.4744 75.8729 55.1212 76.79C55.3352 77.0957 55.5665 77.4039 55.8128 77.7022C56.1636 78.1336 56.5393 78.5478 56.9348 78.9373C57.3204 79.3219 57.7284 79.6868 58.1464 80.0196C58.9773 80.6877 59.8704 81.272 60.8058 81.7527C62.6891 82.729 64.739 83.3108 66.9009 83.4883H69.1772C73.3866 83.2294 77.6805 80.9811 80.3648 77.6208C85.0021 71.8175 84.9324 63.7239 80.1982 57.9428L79.9867 57.6839L82.3476 55.3295L82.6113 55.5563C82.7755 55.6993 82.9273 55.8596 83.074 56.0149C83.4497 56.4093 83.7731 56.752 84.2333 56.7816C84.7085 56.8186 85.1115 56.6066 85.318 56.2244C85.532 55.83 85.4772 55.3468 85.1737 54.9597ZM49.1456 51.9989C49.0958 51.6735 49.0858 51.3308 49.0759 51.0005C49.0485 50.0267 49.0187 49.0233 48.0385 48.4538C46.2672 47.4282 43.1475 50.2239 43.0156 50.3447C38.1296 54.7576 39.381 62.5923 39.8835 64.8875L40.0353 65.5926L39.3686 65.3042C39.2641 65.2598 39.1596 65.208 39.0625 65.1587C38.8511 65.0478 38.6297 64.8185 38.4132 64.5966C38.05 64.2219 37.6768 63.8348 37.2241 63.8274C36.9803 63.8176 36.7439 63.9261 36.5076 64.1529C36.2165 64.429 35.9603 65.6493 35.8707 67.1877C35.7463 69.3621 35.9279 72.5201 37.4878 75.232L38.8735 77.2042L38.3884 77.3546C38.264 77.394 38.1694 77.4113 38.0873 77.4162H38.0848C37.8311 77.4162 37.5574 77.3176 37.2664 77.2116C36.5424 76.9478 35.918 76.7851 35.5398 77.4532C35.1443 78.146 35.7961 79.4156 36.4827 80.5693L37.2863 81.9746L35.5448 80.8775C26.9395 74.697 24.2005 66.4579 27.6088 57.0405C27.9546 56.0864 28.3651 55.1471 28.8228 54.2547L29.6836 52.5832L29.5293 54.4519C29.5268 54.4741 29.5268 54.4963 29.5268 54.5184C29.5293 56.3995 30.5518 58.4481 32.5022 58.7193L32.6117 58.7366L32.6341 58.6256C33.4277 54.8192 35.296 50.6134 38.1869 46.1216C38.6595 45.3869 39.177 44.672 39.6745 43.9842C41.003 42.1451 42.3788 40.2419 42.9709 37.9072C43.9137 34.1945 43.0679 30.4127 40.5254 26.9711L40.1547 26.4682L40.7766 26.3844C44.3267 25.9184 47.2822 26.1896 50.076 27.2398C54.972 29.074 61.1044 35.2891 62.2811 46.7725L62.296 46.908L62.4279 46.8711C64.4853 46.3139 65.0251 44.0286 65.3684 41.9306L65.5202 41.0061L66.0451 41.7827C67.6771 44.1888 69.8191 47.9188 70.7595 52.0359L70.8789 52.5536L70.3465 52.4846C70.0679 52.4476 69.8017 52.4205 69.5305 52.3983H66.6049C65.9655 52.4476 65.3261 52.5388 64.7042 52.6695C60.9601 53.451 57.5045 55.7117 55.2207 58.8722L55.0068 59.1705L54.7033 58.9609C52.2304 57.2574 49.6705 55.4947 49.1456 51.9989ZM81.5565 67.9051C81.5565 74.7907 76.347 80.5126 69.4409 81.2153C68.9956 81.2621 68.5254 81.2868 68.0453 81.2868C66.4631 81.2868 64.9157 81.0205 63.4504 80.4929L63.4155 80.4806C63.3732 80.4658 63.3309 80.4485 63.2886 80.4313C62.3134 80.0714 61.3755 79.5906 60.5148 79.0137C59.6341 78.4295 58.8156 77.7342 58.0892 76.9478C57.405 76.2107 56.8005 75.3897 56.2955 74.5096C56.2134 74.3691 56.1338 74.2286 56.0566 74.0831C55.3974 72.8233 54.9446 71.4798 54.7132 70.0869C54.5938 69.3695 54.5341 68.6348 54.5341 67.9051C54.5341 67.6413 54.5416 67.38 54.5565 67.1285C54.6262 65.9131 54.865 64.7125 55.2605 63.5637C55.3426 63.327 55.4247 63.1125 55.5093 62.9054C55.8999 61.9415 56.4074 61.0219 57.0169 60.1763C59.547 56.6361 63.6718 54.5234 68.0453 54.5234C68.5329 54.5234 69.0255 54.5505 69.5131 54.6023L69.5504 54.6072H69.5629C70.0082 54.6565 70.4684 54.7305 70.9286 54.8291C71.5581 54.9671 72.18 55.1471 72.7721 55.369C72.9637 55.4355 73.1652 55.5144 73.3841 55.6081C75.3544 56.4488 77.1208 57.7653 78.489 59.4145C80.4668 61.7985 81.5565 64.8136 81.5565 67.9051Z" fill="black"/>
<path d="M75.4392 68.4903C75.3308 68.8615 75.0451 69.1599 74.6634 69.2978C73.6955 69.2351 72.6438 69.2853 71.6242 69.3304C70.4272 69.3856 69.1884 69.4433 68.1121 69.3204C67.723 69.2753 67.3905 69.022 67.2107 68.6333L67.1787 59.0885C67.3486 58.5995 67.7624 58.3763 68.1048 58.3311C68.5407 58.276 68.9397 58.4666 69.1712 58.8503C69.2081 58.913 69.3189 59.1738 69.3485 59.2716V67.0935H74.6905C74.8136 67.1436 75.1313 67.3718 75.2027 67.4546C75.4589 67.7605 75.5426 68.1292 75.4392 68.4903Z" fill="black"/>
</svg>
