<svg width="109" height="109" viewBox="0 0 109 109" fill="none" xmlns="http://www.w3.org/2000/svg">
<rect width="109" height="109" rx="20" fill="#8AC53F"/>
<path d="M86.0022 82.441L85.4466 82.9221L24.8765 83.0015C23.4678 82.8155 24.0109 80.9232 24.745 80.9232H27.6467C26.1909 78.8895 26.1289 76.3649 27.2325 74.1576C25.3477 73.927 22.947 72.3298 24.5392 70.2888C28.0683 67.2036 29.3902 64.3342 32.6539 61.001C34.9256 56.4327 35.7763 50.5377 37.9389 45.9893C40.4065 40.801 46.2322 40.9077 50.845 38.8765C49.5951 37.8894 48.608 36.4113 48.2658 34.8315C47.9161 33.2195 47.9607 29.6854 48.0798 27.9618C48.7147 18.9221 62.2582 18.1607 62.8658 28.7902C63.0841 32.5995 63.0617 36.7957 59.6839 39.2187C64.2199 40.7117 69.743 41.1581 72.0395 45.9893C74.0508 50.2177 74.9536 55.7854 76.8384 60.1082C77.0914 60.6885 77.5229 61.3606 77.9594 61.8194C80.7469 64.7483 82.421 67.3549 85.3772 70.2168C87.0587 72.2405 84.7795 73.8179 82.8872 74.1601C84.2785 76.2384 84.3554 78.8598 82.8872 80.9257H85.2358C85.4342 80.9257 85.8484 81.4465 85.9947 81.6151V82.4435L86.0022 82.441ZM54.8255 23.1059C52.9456 23.3093 51.2121 24.6609 50.5524 26.4267C49.92 28.1205 49.9175 33.8172 50.6888 35.4516C52.6331 39.561 58.6845 39.3006 60.3089 35.0795C60.8247 33.7354 60.8099 29.2614 60.6561 27.6965C60.3759 24.8642 57.6156 22.8058 54.828 23.1084L54.8255 23.1059ZM46.2942 51.0287V66.7001H63.6917V51.0287C63.6917 50.6443 64.6093 50.3194 65.0805 50.4707C66.0254 50.7758 66.6256 54.1461 67.3473 54.9323L72.1065 52.8813C70.8268 48.9777 70.5043 45.094 66.2139 43.4001C63.6247 42.3758 57.5635 40.4464 54.9247 40.4563C52.3752 40.4662 46.2842 42.4081 43.7719 43.4001C41.6763 44.2284 40.4016 45.5503 39.5633 47.6137C39.2583 48.3652 38.239 51.1081 38.1695 51.7579C38.1571 51.8695 38.1274 51.9687 38.2092 52.0679L42.9783 54.414C43.4347 53.5509 44.0596 50.6518 45.0144 50.4385C45.4633 50.3368 46.1751 50.6096 46.2966 51.0312L46.2942 51.0287ZM44.2233 66.9754V57.0329L43.1817 59.3741C42.4922 60.0263 41.3117 59.5874 41.3167 58.6201C41.3192 58.1911 42.2467 56.4699 42.1525 56.3435L37.3213 54.1313C36.3814 56.9858 35.7019 60.1478 34.0626 62.68L26.4042 71.4618C26.3248 71.7817 27.3813 72.1091 27.6393 72.1562C29.1 72.4241 29.8267 72.0297 31.0518 71.4147C33.5641 70.1548 34.4767 68.3295 36.8055 66.8068C39.0127 65.3634 38.2985 64.9864 39.4071 63.1958C40.1908 61.931 41.7408 62.5758 41.3638 64.0465C41.034 65.3361 40.0568 66.9382 39.045 67.8037L37.4553 68.9049L44.2208 66.9729L44.2233 66.9754ZM72.9398 54.9695L72.3892 55.029L68.1186 56.9833L71.4269 65.2518C71.8634 65.785 72.3222 66.2884 72.9001 66.6803C75.7844 68.6346 77.0467 70.1052 80.0376 71.9752C80.6552 72.2108 81.3397 72.2951 81.9969 72.2257C82.3118 72.1934 83.8098 71.8338 83.5172 71.3949L75.9257 62.6874C74.398 60.3934 73.7929 57.5711 72.9398 54.972V54.9695ZM65.765 57.0354V66.9779L72.8083 68.9793C71.4418 68.3642 70.2613 67.3697 69.49 66.0826L65.765 57.0354ZM31.3072 80.9232H58.3075C57.8884 79.5765 56.7228 78.9268 55.4133 78.6391C50.3143 77.5206 44.2233 77.8529 39.0599 76.903C37.3362 76.5856 37.1378 75.1744 38.7697 74.7008C45.4981 75.2265 52.3231 76.66 59.0639 76.3649C59.9964 76.3252 61.9978 75.725 62.2557 77.0518C62.5707 78.6763 60.2667 78.2472 59.2722 78.4382C59.8749 79.1574 60.2469 80.0254 60.4577 80.9306L79.9881 80.8513C82.669 79.0111 82.4259 75.3034 79.3308 74.0559C75.4719 72.5034 72.5926 71.1816 68.493 69.9763C67.1935 69.5943 65.326 68.8578 64.0438 68.7635C58.0744 68.3295 51.5717 69.0909 45.5452 68.7809L30.0548 74.1452C27.6616 75.7523 28.294 80.4545 31.3072 80.9207V80.9232Z" fill="black"/>
<path d="M72.0893 75.5787C72.8135 75.5589 74.056 75.2762 74.4726 76.0152C74.8273 76.6501 74.5396 77.4214 73.8154 77.5826C71.695 78.0538 68.8627 77.652 66.6605 78.029C64.7831 77.3644 65.3262 75.9855 67.2185 75.8193C68.7313 75.6854 70.5616 75.6234 72.0893 75.5812V75.5787Z" fill="black"/>
</svg>
