<svg width="109" height="109" viewBox="0 0 109 109" fill="none" xmlns="http://www.w3.org/2000/svg">
<rect width="109" height="109" rx="20" fill="#8AC53F"/>
<path d="M85.2067 55.189C84.9339 54.8344 84.6016 54.4798 84.242 54.1301C83.8824 53.7779 83.5005 53.4307 83.121 53.0909C82.4192 52.456 81.6925 51.8013 81.1345 51.1243C80.827 50.8514 80.4252 50.7498 80.0259 50.8465C79.6266 50.9457 79.3166 51.2235 79.1753 51.6128C78.8801 52.4188 79.396 52.9148 79.9937 53.4853C80.1276 53.6142 80.2615 53.7432 80.388 53.8746L80.5542 54.0507L78.3395 56.248L78.1659 56.1141C78.0096 55.9901 77.8633 55.876 77.7145 55.7669C76.8688 55.1345 75.9785 54.5864 75.0733 54.1375C73.9349 53.5646 72.7495 53.1405 71.5491 52.8727L71.4202 52.8429L71.373 52.7189C69.7362 48.4557 66.8222 44.5968 62.9483 41.5587L62.7772 41.4248L62.5738 41.3578C62.2068 41.2462 61.8174 41.2462 61.4529 41.3578C60.5972 41.6133 60.2426 42.583 59.5854 44.572L59.5581 44.6513C59.444 45.001 59.3597 45.2589 59.3151 45.3606C59.1216 45.8021 58.8811 46.2658 58.6033 46.7371L58.2238 47.3794L58.1445 46.6379C57.2889 38.7414 52.3585 30.5597 45.8757 26.2767C43.5519 24.7415 42.6194 24.2703 42.2499 24.1488C41.9324 24.0422 41.6547 24 41.4116 24C40.9305 24 40.5932 24.1711 40.3725 24.3497C39.6458 24.9474 39.7649 25.8724 39.8343 26.423C39.8492 26.5272 39.8641 26.6636 39.8666 26.7181C39.9509 31.4848 39.9906 33.6523 37.5353 37.5708C36.3126 39.5226 34.6882 40.9709 32.9671 42.5061C31.2286 44.0561 29.4404 45.6508 28.0119 47.8332C23.7785 54.2814 22.846 62.1555 25.45 69.432C28.0367 76.6464 33.6863 82.0827 40.9553 84.3469C43.4205 85.1158 45.9526 85.5051 48.4847 85.5051C52.6983 85.5051 56.8623 84.4089 60.5228 82.3331L60.6394 82.2662L60.7585 82.3282C62.6532 83.3202 64.7191 83.9129 66.8966 84.089H69.1608C73.3968 83.8286 77.7145 81.547 80.4128 78.1394C85.0703 72.2542 85.0009 64.0503 80.2417 58.1874L80.1028 58.0138L82.2952 55.8066L82.4712 55.9603C82.63 56.0992 82.7788 56.2579 82.9251 56.4117C83.2996 56.811 83.6542 57.1904 84.1626 57.2227C84.6859 57.2574 85.1323 57.0243 85.3605 56.5952C85.5961 56.1563 85.5366 55.6181 85.2067 55.189ZM44.0603 82.7225C43.2518 82.5613 42.4433 82.3555 41.6522 82.1124C38.3736 81.0882 35.457 79.3521 33.0712 77.0531C30.6854 74.7566 28.8254 71.9021 27.6598 68.6433C25.3012 62.0637 26.1445 54.9485 29.9687 49.1179C31.2335 47.1934 32.8307 45.7674 34.5221 44.2595C36.2903 42.6822 38.1181 41.0528 39.5218 38.8158C42.2176 34.5129 42.2995 31.8692 42.2176 27.1869L42.2102 26.738L42.5921 26.9686C43.165 27.3133 43.8545 27.7498 44.5836 28.2334C50.9449 32.4346 55.714 40.9561 55.9224 48.4954C55.9224 48.5599 55.8976 48.6665 55.8827 48.7533C55.7909 49.1923 55.6446 49.9115 56.153 50.6406L56.2671 50.7795C56.5027 51.0251 56.9937 51.2805 57.4426 51.2681C58.0577 51.2507 58.6082 50.9035 59.8954 49.0534C60.5452 48.1234 61.0734 47.1934 61.4653 46.2882C61.5545 46.0848 61.6537 45.7822 61.81 45.3085L61.8894 45.0729C61.9588 44.8646 62.0456 44.6067 62.1349 44.3537L62.2564 44.0115L62.5317 44.2521C65.1456 46.5213 67.2487 49.2741 68.6152 52.213L68.7789 52.5652H66.5816C65.9541 52.6148 65.3069 52.709 64.6744 52.8404C59.2084 53.9961 54.5955 58.2073 52.924 63.5716L52.8794 63.7154L52.5272 63.7774L52.4404 63.584C51.7013 61.5404 50.4886 59.6581 49.1122 58.4255C48.8666 58.2048 48.1028 57.6517 47.4803 57.24C46.3395 56.4936 45.3351 55.938 44.5712 56.7192L44.2389 57.0615V60.3947C44.2389 61.5925 42.8128 62.9615 41.5555 64.1668C40.7321 64.9604 39.9707 65.6945 39.4673 66.4658C37.4287 69.5758 37.1137 73.4347 38.6216 76.7878C39.7326 79.2529 41.7142 81.1948 44.2066 82.2513L46.4263 83.1912L44.0603 82.7225ZM48.4822 80.7757C48.0705 80.7757 47.6539 80.7459 47.2372 80.6839C45.7988 80.4731 44.472 79.9126 43.3609 79.0793C42.2474 78.246 41.3496 77.135 40.7594 75.8255C39.5813 73.2066 39.8318 70.1884 41.4265 67.748C41.7861 67.1999 42.4557 66.5551 43.165 65.8756L43.356 66.0343L43.1848 65.8557C44.777 64.3231 46.5825 62.587 46.5825 60.3947V59.4547L46.9744 59.7375C47.2348 59.9235 47.4431 60.0822 47.5473 60.1715C49.1618 61.6198 50.4663 64.204 50.7936 66.6097C50.7986 66.6667 50.7961 66.7113 50.7961 66.7609V66.8329C50.7887 67.4702 50.7812 68.1919 51.2599 68.6706C51.4682 68.8789 51.7311 69.0054 52.0188 69.0376L52.2271 69.0599L52.2395 69.2683C52.3263 70.6422 52.5941 72.0087 53.0406 73.3231C53.115 73.5166 53.1894 73.7224 53.2613 73.9283C53.2662 73.9382 53.2712 73.9531 53.2737 73.9704C53.3158 74.082 53.3605 74.1912 53.4076 74.3003C53.8466 75.3617 54.3971 76.3686 55.0469 77.2987L55.1535 77.4499L55.037 77.5938C53.4101 79.6349 51.0218 80.7757 48.4822 80.7757ZM58.0378 80.989C56.3713 81.7875 54.6203 82.3703 52.8372 82.7275L50.5035 83.1937L52.6909 82.2563C54.1591 81.6263 55.4437 80.6938 56.5076 79.4861L56.6837 79.2877L56.8697 79.4761C57.2566 79.863 57.6658 80.2326 58.0874 80.5723L58.3925 80.8203L58.0378 80.989ZM81.3775 68.2887C81.3775 75.642 75.3907 81.6263 68.0324 81.6263C66.47 81.6263 64.9423 81.361 63.4939 80.8352C62.4672 80.4632 61.4901 79.9672 60.5948 79.3621C59.7243 78.7792 58.9158 78.0848 58.1966 77.3036C57.522 76.567 56.9268 75.7486 56.4258 74.8707C56.3465 74.7318 56.2671 74.5904 56.1927 74.4466C55.538 73.1917 55.0916 71.8525 54.8634 70.4637C54.7468 69.7494 54.6873 69.0178 54.6873 68.2887C54.6873 68.0258 54.6947 67.7654 54.7096 67.5149C54.7791 66.3021 55.0122 65.1068 55.404 63.961C57.2542 58.5718 62.3283 54.951 68.0324 54.951C68.516 54.951 69.0046 54.9782 69.4882 55.0303H69.5229C70.6191 55.1568 71.6855 55.4123 72.6999 55.7917C72.8908 55.8611 73.0917 55.9405 73.3075 56.0323C78.2105 58.1428 81.3775 62.9541 81.3775 68.2887Z" fill="black"/>
<path d="M75.4083 68.6061C75.2868 69.0203 74.9594 69.3501 74.5254 69.4939C73.5507 69.4319 72.4843 69.4816 71.4526 69.5262C70.2424 69.5808 68.9924 69.6378 67.8987 69.5163C67.4548 69.4667 67.0753 69.1765 66.8794 68.74L66.8472 59.2538C67.0034 58.7901 67.3977 58.4652 67.8863 58.4007C68.3774 58.3387 68.8238 58.552 69.0842 58.9736C69.1263 59.0406 69.2578 59.3481 69.2801 59.4374V67.066H74.5601C74.6816 67.1007 75.0611 67.3661 75.1479 67.4678C75.4331 67.8026 75.5249 68.2068 75.4083 68.6061Z" fill="black"/>
</svg>
