<svg width="109" height="109" viewBox="0 0 109 109" fill="none" xmlns="http://www.w3.org/2000/svg">
<rect width="109" height="109" rx="20" fill="#8AC53F"/>
<path d="M24 77.5191C24.3284 76.4041 24.7719 75.6812 25.6149 74.8946C25.7791 74.7427 26.1589 74.603 26.2349 74.5001C26.377 74.3065 26.6294 73.0052 26.845 72.5421C27.6684 70.7753 29.6705 69.3074 31.6186 69.0746C34.0422 68.7855 36.6544 69.104 38.3918 70.9493C41.2834 66.1512 45.9884 63.4409 50.8109 60.9218C51.0928 57.05 50.6394 53.0067 50.8649 49.152C51.0805 45.4885 52.0705 41.5947 52.3009 37.9312C52.4993 34.7896 51.9921 31.2119 52.3033 28.1414C52.5435 25.7791 55.6752 26.9407 56.9495 27.791C58.9148 29.0996 58.8829 30.2954 59.5225 32.2632C59.7136 32.8464 60.0886 33.3316 60.265 34.0275C60.6742 35.6449 60.363 36.2183 60.2969 37.6886C60.118 41.6633 60.4439 45.7704 60.2969 49.7598L61.1398 56.6212C62.0514 56.4153 63.4139 55.5111 64.3034 55.5356C65.5581 55.5699 65.9796 57.1211 64.8695 57.7852L53.852 62.1152L56.0648 67.6043C57.567 68.3395 59.672 68.0675 61.0075 67.0603C61.7206 66.5212 62.2646 65.4479 63.012 65.1244C66.2148 63.7472 70.6772 63.3405 74.0025 62.0221C74.7989 61.853 75.512 62.2916 75.588 63.1248L75.6027 74.3359C75.6419 74.4903 75.7473 74.5074 75.8845 74.5319C76.6638 74.6691 77.6489 74.6422 78.4526 74.7721C78.4722 74.3579 78.4232 73.934 78.4526 73.5199C78.7467 69.6015 79.2662 65.617 79.4059 61.6937C79.4916 59.2824 78.7663 57.1162 76.2472 56.3761C75.2155 56.0747 73.2772 56.2953 73.733 54.5848C74.1226 53.1243 76.7226 53.9158 77.6979 54.3275C80.7414 55.614 82.1725 58.8585 81.8025 62.0564L80.8419 75.0686C80.9007 75.3749 82.2264 75.9311 82.6356 76.262C83.1037 76.6393 83.8437 77.448 84.1647 77.9553C84.7798 78.9281 85.9683 82.1628 84.3093 82.5941L25.2473 82.6578C24.6102 82.6578 24.2916 82.3147 24 81.8148V81.0993C24.7474 80.4107 24.3039 79.8667 24 79.0702V77.5166V77.5191ZM58.035 36.3188C58.1919 35.5861 58.0105 34.6622 57.6993 33.9687C57.5621 33.6649 57.2582 33.4174 57.1602 33.0743C57.0475 32.6822 57.1284 32.3416 57.0524 31.9887C56.7951 30.8002 55.9325 29.8323 54.8126 29.3936V36.3212H58.0375L58.035 36.3188ZM57.7973 38.708H54.5725C54.5602 38.9236 54.5994 39.1491 54.5725 39.3623C54.1755 42.2588 53.5629 45.567 53.3815 48.4414C53.1487 52.1196 53.5506 56.0257 53.3815 59.726L58.7604 57.4985L57.7924 49.0442L57.7973 38.7105V38.708ZM51.7054 63.3086C48.1007 65.0264 44.4666 67.0285 41.9181 70.1798C41.4329 70.7802 39.867 72.8631 39.8817 73.5125C39.8891 73.9046 40.0998 74.3849 40.1292 74.8284C40.2419 76.4776 39.644 77.8278 38.8108 79.1903C40.1635 79.8274 41.5995 80.2342 43.109 80.2661C42.1754 77.4897 43.7314 74.7034 46.7456 74.5295C47.341 74.4952 48.9314 74.799 49.2573 74.5319L53.7148 68.4743L51.7054 63.3086ZM73.3213 80.2661C73.3654 80.1387 73.2012 80.0039 73.2012 79.9671V64.7421L64.2177 67.2809C62.5807 69.3001 60.1841 70.6381 57.5131 70.4592C57.0524 70.4273 55.8124 70.045 55.5306 70.1725L52.0656 74.7157C52.0166 74.9853 52.1832 74.8823 52.3621 74.8946C56.5868 75.1739 61.0786 75.2867 65.2616 75.7302C66.2393 75.8331 67.0186 75.8993 67.8199 76.5144C68.9447 77.3794 69.3931 78.8963 69.0255 80.2661H73.3237H73.3213ZM35.3458 78.7149C39.5215 76.9113 37.7351 71.0326 33.3168 71.4296V73.1621C33.3168 73.5934 33.655 74.4535 33.9343 74.8137C34.2259 75.1911 35.3458 75.8135 35.3458 76.1468V78.7149ZM32.9566 79.0727V77.2226C32.9566 77.1588 32.192 76.4948 32.0597 76.3281C31.6456 75.8062 30.9276 74.3971 30.9276 73.76V71.7898C29.8591 72.199 29.0113 73.2282 28.7613 74.3408C28.6388 74.8774 28.7344 75.3969 28.4893 75.8601C28.1609 76.4801 27.3621 76.458 26.8867 77.0045C25.3012 78.8301 27.8056 81.408 29.7219 79.7196C29.9204 79.5456 30.0209 79.2418 30.2708 79.0727C31.0844 78.5213 32.0401 79.2565 32.959 79.0727H32.9566ZM46.6598 76.953C44.7092 77.4137 44.7999 79.9083 46.7603 80.2563L65.7394 80.2685C67.0088 80.0651 67.1068 78.5801 65.8472 78.2444L46.6573 76.9506L46.6598 76.953ZM82.5156 80.2661C81.7216 77.051 78.2541 77.1981 75.588 76.9212V79.6069C75.588 79.7466 76.105 80.2636 76.2447 80.2636H82.5131L82.5156 80.2661Z" fill="black"/>
<path d="M69.5152 56.6135C70.1824 56.6135 70.7233 56.0726 70.7233 55.4054C70.7233 54.7381 70.1824 54.1973 69.5152 54.1973C68.848 54.1973 68.3071 54.7381 68.3071 55.4054C68.3071 56.0726 68.848 56.6135 69.5152 56.6135Z" fill="black"/>
</svg>
