<svg width="109" height="109" viewBox="0 0 109 109" fill="none" xmlns="http://www.w3.org/2000/svg">
<rect width="109" height="109" rx="20" fill="#8AC53F"/>
<path d="M47.0735 20.3477C49.9722 20.9958 52.4571 24.0268 55.5516 23.2408C57.6891 22.6975 59.57 20.9517 61.7433 20.3477H63.627C67.6592 21.484 67.2455 27.6646 70.8227 28.9664C73.6441 29.9924 78.4403 28.9554 79.6704 32.6373C80.8039 36.0269 77.7756 39.4662 79.9351 42.602C81.6837 45.1421 86.0579 46.9266 84.7644 50.8429C84.0391 53.0411 81.8023 54.2408 80.3819 55.8818C77.9439 58.695 79.7255 60.7856 79.9186 63.8856C80.1144 67.0545 78.9009 68.7976 75.7402 69.3436C75.7099 69.5009 75.7595 69.6029 75.8147 69.7408C77.064 72.9153 79.982 76.4428 81.1487 79.6172C81.7168 81.1589 81.0963 82.2842 79.5683 82.7944L71.6584 83.0951L67.1987 88.4622C66.1617 89.6343 64.3827 89.5488 63.514 88.2332L57.0906 76.4841C55.4523 75.3202 53.4941 75.3202 51.8531 76.4841C49.5998 80.1192 47.8457 84.3858 45.5621 87.9602C44.6354 89.4109 43.2536 89.7805 41.8829 88.5973L37.3818 83.1392C35.4788 82.9075 33.5593 83.0316 31.6535 82.9434C31.0329 82.9158 29.9297 82.8799 29.3809 82.7944C28.0157 82.5821 27.1469 80.839 27.7978 79.6145L33.3414 69.3436C30.2055 68.7424 28.8182 67.1235 29.0306 63.8856C29.243 60.6477 30.9943 58.717 28.5673 55.8818C26.9014 53.9319 24 52.4867 24 49.4888C24 46.4908 27.3868 44.8719 28.9589 42.6792C31.2536 39.4772 28.0294 35.8808 29.3367 32.425C30.8564 28.4066 36.7006 30.3179 39.2601 28.3486C41.5464 26.5918 41.7974 21.2495 45.3249 20.3477H47.0735ZM77.3123 32.6401C76.2339 31.5314 72.6099 31.581 71.0295 31.1839C66.1837 29.9566 66.8622 26.7242 64.4931 23.5856C63.0561 21.6825 61.5889 22.6175 59.8568 23.5056C56.6962 25.1218 55.3558 26.3629 51.6132 24.8901C49.2854 23.9744 46.3095 20.8248 44.3238 23.8558C42.2525 27.0248 42.5283 30.0669 38.0824 31.2087C36.4386 31.6307 32.9277 31.6086 31.7362 32.6677C30.4786 33.7847 31.6176 36.9095 31.83 38.3464C32.1913 40.801 31.9238 42.511 30.3186 44.4388C29.2402 45.7351 26.1347 47.7595 26.0906 49.497C26.0437 51.3532 29.7973 53.794 30.8978 55.4323C33.3745 59.1197 30.6937 61.8832 31.2287 65.3307C31.5845 67.6309 35.3685 67.3193 37.1226 67.6475C42.087 68.5742 41.8995 71.0784 44.0452 74.7245C45.1953 76.6772 45.8103 76.975 47.9754 76.0925C51.114 74.8128 52.4985 72.6615 56.3928 73.8171C58.2682 74.3742 61.4151 76.8868 63.1003 76.5476C64.7854 76.2083 65.8059 72.5567 66.6195 71.1805C68.0261 68.8003 69.4851 68.0446 72.1934 67.6033C74.0744 67.2972 77.5384 67.6833 77.7701 65.1018C78.0156 62.3383 76.2891 59.812 77.2985 56.8223C78.1783 54.2215 82.8945 51.549 82.8945 49.4832C82.8945 47.6878 79.4139 45.4179 78.3272 43.9424C77.0558 42.2159 76.9041 40.8507 77.0944 38.7187C77.2268 37.2239 78.4844 33.8398 77.315 32.6373L77.3123 32.6401ZM48.4194 78.2244C45.8186 79.1622 44.048 78.6326 42.5228 76.3821C41.4637 74.8183 40.981 72.7112 39.8034 71.2963C38.7388 70.0194 37.2798 69.8649 35.716 69.6415L29.7118 80.646C32.6215 80.7866 35.5726 80.7673 38.4575 81.1203L43.102 86.7025L43.6398 87.1052L48.4194 78.2217V78.2244ZM73.4345 69.6332C73.0649 69.4043 70.8889 70.0442 70.4035 70.2593C67.6868 71.4728 67.4938 76.4621 64.7495 78.0645C63.3126 78.9029 62.0577 78.6464 60.5353 78.2244L65.4473 87.1052L70.5331 81.1562C71.3384 80.7066 73.2056 80.9604 74.2012 80.919C74.4881 80.908 74.7473 80.7894 75.0038 80.7811C76.4187 80.7287 77.8418 80.8804 79.2429 80.6432L73.4345 69.6305V69.6332Z" fill="black"/>
<path d="M74.5159 49.5192C74.5159 60.587 65.5441 69.5588 54.4762 69.5588C43.4083 69.5588 34.4365 60.587 34.4365 49.5192C34.4365 38.4513 43.4083 29.4795 54.4762 29.4795C65.5441 29.4795 74.5159 38.4513 74.5159 49.5192ZM72.395 49.5164C72.395 39.6207 64.3719 31.5976 54.4762 31.5976C44.5805 31.5976 36.5574 39.6207 36.5574 49.5164C36.5574 59.4121 44.5805 67.4352 54.4762 67.4352C64.3719 67.4352 72.395 59.4121 72.395 49.5164Z" fill="black"/>
<path d="M54.4289 37.2127C54.8839 37.1879 55.2949 37.5795 55.5293 37.9353L58.5162 43.9671L65.6815 45.0096C66.2442 45.324 66.44 45.7212 66.291 46.3638C66.0483 47.4173 61.8231 50.4291 61.1032 51.6564L62.2864 58.5128C62.2864 59.5084 61.4701 59.9111 60.5682 59.5443L54.5419 56.4278L48.4219 59.5829C47.4787 59.8587 46.7699 59.3981 46.8112 58.3887L47.9917 51.6647L43.1624 47.0698C42.4591 46.2976 42.4646 45.5584 43.4327 45.0399L50.4325 43.9616L53.4222 37.9326C53.6428 37.6044 54.0124 37.232 54.4289 37.21V37.2127ZM54.6081 40.6713C54.2579 40.6078 54.4013 40.7209 54.3296 40.8616C53.8773 41.7496 52.3962 45.3985 51.8556 45.7874C51.0144 46.3941 47.3215 46.35 46.1328 46.7278C46.7092 47.7511 49.834 50.0071 50.1098 50.8924C50.4656 52.0287 49.2686 55.3383 49.23 56.687C49.4396 56.8939 53.6566 54.0834 54.5419 54.1193C55.3693 54.1552 59.5477 56.9159 59.7242 56.687L58.8058 51L62.9566 46.7278C61.6714 46.3252 58.2101 46.4272 57.2365 45.7846C56.376 45.2165 55.168 41.711 54.6109 40.6685L54.6081 40.6713Z" fill="black"/>
</svg>
