<svg width="109" height="109" viewBox="0 0 109 109" fill="none" xmlns="http://www.w3.org/2000/svg">
<rect width="109" height="109" rx="20" fill="#8AC53F"/>
<path d="M64.4436 21.0457C66.5614 21.2987 68.9294 23.0532 70.0085 24.8588C73.8323 31.2524 67.5624 38.6713 60.6387 36.3867V45.2372C60.6387 45.5224 61.4217 46.1602 61.7608 46.214C64.2714 46.6122 68.8621 45.5655 71.0068 46.6795C72.3442 47.3738 73.0573 48.6842 73.1622 50.1643C74.7472 50.5275 76.0254 51.4263 76.6712 52.9521C77.2255 54.2652 77.4489 57.3759 75.2396 56.609C73.7354 56.087 75.1481 53.7163 73.2349 52.9763C71.8464 52.4381 71.9379 53.2696 70.7754 53.7297L70.5386 54.346L70.4821 86.9385C70.4256 88.0498 69.0532 88.5907 68.254 87.8453C68.1759 87.7726 67.853 87.2345 67.853 87.1968V54.0903H60.7032C59.9875 54.0903 58.3245 53.536 57.6248 53.2346C55.0254 52.1125 53.2359 50.0512 52.0438 47.5352L50.3028 51.4236C51.6429 54.615 53.3839 57.6477 54.759 60.8203C55.4721 62.4645 55.9968 63.6915 55.9161 65.5617L54.202 80.491C57.0194 81.5916 57.7029 84.1184 57.3665 86.9385C57.2804 87.6704 56.8552 88.0956 56.1206 88.1844C53.1687 87.9637 49.8292 88.4669 46.9257 88.187C46.0242 88.1009 45.634 87.7215 45.5479 86.8093L45.556 65.8497L42.6686 63.5274L39.9051 80.3726C39.9562 80.717 40.7931 80.9969 41.1348 81.2498C42.9055 82.5576 43.1772 84.8745 42.9324 86.9331C42.8463 87.6623 42.4238 88.0902 41.6865 88.179L32.1364 88.1467C31.5928 88.0014 31.2161 87.6193 31.13 87.0542C30.799 84.8907 31.1972 81.3413 31.2591 79.0702C31.4852 70.6261 32.0476 62.1981 32.166 53.754C32.2036 51.1572 31.9103 48.6681 32.322 46.0445C32.9275 42.1803 35.126 37.1052 37.8761 34.2878C39.1193 33.0123 40.7554 33.9191 40.3491 35.313C40.1742 35.9158 38.6484 37.5465 38.1748 38.2569C36.8589 40.2267 35.8929 42.4682 35.3224 44.7689L48.177 49.7606L51.0347 43.3724C51.2231 41.486 49.9907 38.7574 50.1387 36.9787C50.2624 35.5095 52.2187 35.2081 52.7327 36.7527C53.9921 40.5442 53.1417 45.7404 56.0479 48.913C57.0893 50.0512 59.5515 51.4667 61.1042 51.4667H65.2375V48.843H61.236C59.7022 48.843 58.1415 46.6849 58.0177 45.2426C57.7325 41.9381 58.2437 38.2327 58.0177 34.8825C57.6275 34.2367 57.0167 33.8034 56.5996 33.1522C55.8246 31.9413 55.3348 30.3563 55.3967 28.914C55.2514 28.7687 52.4125 29.1347 51.9577 29.2154C51.1558 29.3553 49.5063 29.9796 48.8981 29.9662C47.4154 29.9393 46.9553 27.9318 48.8067 27.2456C50.9352 26.4545 53.5427 26.3576 55.7923 26.2285C56.6803 24.2318 58.1226 22.5554 60.1624 21.6808C60.644 21.4736 61.602 21.1049 62.0864 21.0484C62.6219 20.9839 63.9108 20.9839 64.449 21.0484L64.4436 21.0457ZM68.4935 28.9113C68.4935 26.024 66.1524 23.6855 63.2623 23.6855C60.3723 23.6855 58.0311 26.0266 58.0311 28.9113C58.0311 31.796 60.3723 34.1371 63.2623 34.1371C66.1524 34.1371 68.4935 31.796 68.4935 28.9113ZM48.1743 64.9052V80.3107H51.5864L53.2817 64.924L52.7892 62.9139L47.9186 52.6076L34.8542 47.4034C34.2111 50.8827 35.0184 53.5656 37.6151 55.9202C40.7769 58.7914 44.4904 61.3504 47.7141 64.184C47.8272 64.3051 48.1501 64.7868 48.1716 64.9052H48.1743ZM67.8557 51.464C71.3566 52.0345 71.3566 48.2698 67.8557 48.8403V51.464ZM33.872 80.3107H37.0877L37.2599 80.09L40.3087 61.5227L34.7923 56.9723L33.872 80.3107ZM38.6619 82.9317C37.2491 82.6949 35.2229 83.1066 33.7402 82.9317V85.5553H40.3006C40.4729 84.4574 39.8459 83.1308 38.6592 82.9317H38.6619ZM53.0933 82.9317C51.6806 82.6949 49.6543 83.1066 48.1716 82.9317V85.5553H54.7321C54.9043 84.4574 54.2773 83.1308 53.0906 82.9317H53.0933Z" fill="black"/>
<path d="M43.5676 32.4584C44.3018 32.4584 44.8969 31.8633 44.8969 31.1291C44.8969 30.395 44.3018 29.7998 43.5676 29.7998C42.8334 29.7998 42.2383 30.395 42.2383 31.1291C42.2383 31.8633 42.8334 32.4584 43.5676 32.4584Z" fill="black"/>
</svg>
