<svg width="109" height="109" viewBox="0 0 109 109" fill="none" xmlns="http://www.w3.org/2000/svg">
<rect width="109" height="109" rx="20" fill="#8AC53F"/>
<path d="M81.5592 30.3943C81.3459 30.3695 81.1277 30.3447 80.9218 30.3025C76.671 29.4097 74.6671 27.376 73.7818 23.0533C73.7421 22.8549 73.7198 22.6491 73.6974 22.4507C73.5982 21.5529 73.4966 21.0445 72.5145 21.0023C71.4257 20.9577 71.3042 21.5603 71.1901 22.5499C71.1653 22.7607 71.138 22.9814 71.0959 23.1872C70.2824 27.0685 68.2017 29.4097 64.9156 30.1438C64.5486 30.2256 64.1815 30.2529 63.8269 30.2802C62.9291 30.3471 62.2148 30.4017 61.8081 31.2449V32.0683C62.2148 32.914 62.9291 32.9661 63.8269 33.033C64.1815 33.0603 64.5486 33.0876 64.9156 33.1694C66.5574 33.5389 67.9016 34.3078 68.9333 35.4684C69.965 36.6316 70.6891 38.1866 71.0959 40.1284C71.138 40.3343 71.1653 40.5525 71.1901 40.7658C71.3042 41.7553 71.4282 42.358 72.5145 42.3133C73.4966 42.2712 73.5982 41.7603 73.6974 40.8625C73.7198 40.6641 73.7421 40.4583 73.7818 40.2624C74.6671 35.9372 76.671 33.906 80.9218 33.0132C81.1376 32.9685 81.3633 32.9437 81.5815 32.9214C82.5264 32.8247 83.0646 32.7205 83.1067 31.7211C83.1514 30.6348 82.5487 30.5083 81.5592 30.3943ZM76.1452 32.0286C74.5754 32.8545 73.4767 34.2458 72.8294 35.27L72.7798 35.3469L72.1747 35.5329L72.0805 35.3494C71.2546 33.782 69.8608 32.6809 68.839 32.036L68.7622 31.9864L68.5762 31.3813L68.7597 31.2846C70.3271 30.4612 71.4257 29.0674 72.073 28.0456L72.1226 27.9688L72.7277 27.7828L72.8245 27.9638C73.6478 29.5337 75.0416 30.6323 76.0634 31.2796L76.1403 31.3292L76.3263 31.9344L76.1452 32.0286Z" fill="black"/>
<path d="M85.2074 52.1911C84.9346 51.8365 84.6023 51.4818 84.2426 51.1321C83.883 50.78 83.5011 50.4328 83.1217 50.093C82.4198 49.4581 81.6932 48.8034 81.1352 48.1263C80.8276 47.8535 80.4259 47.7518 80.0266 47.8485C79.6273 47.9477 79.3173 48.2255 79.1759 48.6149C78.8808 49.4209 79.3966 49.9169 79.9943 50.4873C80.1283 50.6163 80.2622 50.7452 80.3887 50.8767L80.5548 51.0528L78.3401 53.2501L78.1665 53.1162C78.0103 52.9922 77.864 52.8781 77.7152 52.769C76.8695 52.1365 75.9791 51.5885 75.0739 51.1396C73.6702 50.4352 72.2144 49.9566 70.7413 49.716L70.6818 49.6987C62.1082 45.9935 56.0148 37.7151 54.7822 28.095C54.7425 27.7924 54.7301 27.3857 54.7152 26.9542C54.6855 25.9597 54.6433 24.5981 54.2242 24.2137C53.9886 23.9955 53.6711 23.8789 53.3388 23.8789C53.2024 23.8789 53.0635 23.8987 52.9271 23.9384C52.4881 24.0674 52.1757 24.3749 52.0715 24.7792C51.95 25.2429 51.9351 25.9522 51.9227 26.6392C51.9128 27.1476 51.9004 27.6709 51.8458 28.095C50.2139 40.8201 40.9386 50.0955 28.2159 51.7249C27.9134 51.7645 27.5067 51.7769 27.0751 51.7918C26.0781 51.8216 24.7166 51.8637 24.3322 52.2829C24.0247 52.6152 23.923 53.1112 24.0594 53.5799C24.1884 54.0189 24.4934 54.3314 24.8976 54.4355C25.3639 54.5571 26.0732 54.5719 26.7602 54.5843C27.2661 54.5943 27.7919 54.6067 28.2159 54.6612C40.9386 56.2931 50.2139 65.5685 51.8458 78.2911C51.8855 78.5912 51.8979 78.9954 51.9103 79.4245C51.9401 80.4239 51.9822 81.7904 52.4013 82.1749C52.8775 82.6138 53.748 82.6163 54.2242 82.1749C54.6433 81.7904 54.6855 80.4289 54.7152 79.4344C54.7301 79.0004 54.7425 78.5937 54.7822 78.2911C54.9136 77.2792 55.0897 76.2823 55.3104 75.3274L55.4245 74.829L55.7444 75.2258C58.5147 78.6532 62.4753 80.7364 66.8972 81.0911H69.1615C73.3974 80.8307 77.7152 78.549 80.4135 75.1414C85.071 69.2563 85.0015 61.0523 80.2423 55.1895L80.1035 55.0159L82.2958 52.8086L82.4719 52.9624C82.6306 53.1013 82.7794 53.26 82.9257 53.4138C83.3002 53.8131 83.6549 54.1925 84.1633 54.2247C84.6866 54.2595 85.133 54.0263 85.3611 53.5973C85.5968 53.1583 85.5372 52.6202 85.2074 52.1911ZM52.6593 61.5334C52.3617 62.7735 52.2129 64.0333 52.2129 65.2857C52.2129 66.997 52.4906 68.6983 53.0412 70.3252L52.5725 70.4914C49.6336 62.7164 43.1483 56.4097 35.227 53.6196L35.1402 53.5899L34.7434 52.8979L35.0336 52.8037C41.6454 50.6287 47.6521 45.5347 51.0993 39.1758C51.5631 38.3202 51.9301 37.4249 52.2873 36.5569C52.4708 36.113 52.6593 35.6517 52.8602 35.2003C52.8701 35.1755 52.875 35.1433 52.8825 35.1061C52.8998 35.0118 52.9271 34.8705 53.0635 34.7837C53.1974 34.6969 53.3512 34.7217 53.4529 34.7489C53.6265 34.7911 53.681 34.8531 54.2961 36.5098C54.4449 36.914 54.5863 37.2935 54.6483 37.4274C56.9448 42.2883 60.4441 46.425 64.7669 49.3961L65.243 49.7235L64.6776 49.8425C58.8743 51.0676 54.0456 55.7673 52.6593 61.5334ZM81.3782 65.2907C81.3782 72.644 75.3914 78.6284 68.0331 78.6284C63.2416 78.6284 58.7949 76.0392 56.4265 71.8727C55.6477 70.5087 55.122 69.0257 54.864 67.4657C54.7475 66.7514 54.6879 66.0198 54.6879 65.2907C54.6879 57.9374 60.6748 51.953 68.0331 51.953C68.5192 51.953 69.0152 51.9803 69.5037 52.0349C70.8157 52.1787 72.0954 52.5135 73.3056 53.0343C78.2112 55.1448 81.3782 59.9561 81.3782 65.2907Z" fill="black"/>
<path d="M75.4088 65.6085C75.2872 66.0227 74.9599 66.3525 74.5284 66.4964C73.5512 66.4344 72.4848 66.484 71.4531 66.5286C70.2453 66.5857 68.9929 66.6402 67.8992 66.5187C67.4553 66.4691 67.0783 66.1789 66.8799 65.7425L66.8477 56.2563C67.0039 55.7925 67.3982 55.4676 67.8893 55.4031C68.3778 55.3411 68.8267 55.5544 69.0847 55.976C69.1268 56.043 69.2583 56.3505 69.2806 56.4398V64.0684H74.5606C74.6821 64.1031 75.0616 64.3685 75.1484 64.4702C75.4336 64.805 75.5253 65.2092 75.4088 65.6085Z" fill="black"/>
</svg>
