<svg width="109" height="109" viewBox="0 0 109 109" fill="none" xmlns="http://www.w3.org/2000/svg">
<rect width="109" height="109" rx="20" fill="#8AC53F"/>
<path d="M52.2961 85.6778C49.2324 85.2491 46.4871 84.4267 44.0376 82.4913C37.5316 77.3542 31.6098 70.7805 25.1214 65.5431C24.091 64.5453 23.4943 64.1467 24.5698 62.7853C25.0412 62.1886 27.9068 59.0046 28.3606 58.7413C28.5988 58.6034 28.9598 58.5658 29.2381 58.5182C30.1758 58.3552 31.2413 58.443 32.1689 58.1446L39.8783 49.5653V49.3221C37.9553 47.3565 35.2552 45.5815 36.7645 42.42C38.6197 38.534 44.0125 40.4268 44.9151 44.0321C45.0605 44.6162 44.9753 45.4335 45.0931 45.8121C45.1307 45.93 45.246 46.0478 45.3789 46.0152L62.0362 23.3834C63.2421 22.2803 64.8893 23.7796 63.8514 25.0757L47.4573 47.3715C47.3069 47.6975 47.6629 47.9281 47.7732 48.2766C48.6332 50.9968 45.7299 53.7171 47.4197 56.4649C47.9287 57.2897 50.9071 59.7918 51.8297 60.0124C53.141 60.3283 54.7555 60.0174 55.7258 59.0572L67.1131 48.412C68.2363 47.7 69.4573 49.0062 68.8255 50.1244L58.9625 59.3606C59.855 63.046 61.3016 66.3855 64.8793 68.1405C68.7829 70.056 76.4521 69.4317 79.032 72.716C79.7089 73.5759 80.9599 76.8678 81.1304 77.9634C81.7296 81.8519 78.5531 83.8501 75.1259 84.2111C68.9759 84.858 62.3371 85.229 56.1445 85.5524C55.9865 85.56 55.8662 85.6803 55.8486 85.6803H52.2986L52.2961 85.6778ZM40.0237 42.7384C39.2139 42.8713 38.5896 43.8616 38.9106 44.6513L41.6884 47.4768C41.7712 47.4618 42.4406 46.7849 42.4757 46.6645C42.5609 46.3737 42.5409 44.724 42.4456 44.4182C42.2425 43.7638 40.7909 42.6105 40.0212 42.7384H40.0237ZM44.9151 48.5048C44.6819 48.3117 44.3635 48.3117 44.1304 48.5048L34.4253 59.3004L51.747 74.9047C52.9153 75.9076 54.3394 76.6271 55.9013 76.7474C61.9585 77.2213 68.6324 76.3839 74.7548 76.7424C75.4142 76.6772 77.1491 76.0028 77.5227 75.4638C77.7433 75.1429 77.1266 74.283 76.8784 74.0122C76.6026 73.7113 76.1739 73.4155 75.7953 73.2575C70.3147 71.7733 64.4957 72.0516 60.186 67.8121C58.4184 66.0721 57.7114 64.0865 57.0746 61.7398C56.8164 61.5493 54.6728 62.4117 54.1563 62.512C52.81 62.7753 51.5966 62.6474 50.3355 62.1159C49.0744 61.5844 45.9932 58.8817 45.2912 57.736C43.5061 54.8277 44.7797 52.3607 45.5068 49.3848C45.4993 49.2619 45.0054 48.585 44.9101 48.5073L44.9151 48.5048ZM78.4879 77.8431C77.104 78.8609 75.4819 79.222 73.7821 79.3172C67.7349 79.6557 61.2565 79.1593 55.1843 79.1743C53.1184 78.8685 51.3283 77.8606 49.7864 76.4917L32.3369 60.7646L29.5239 61.0103L26.9566 63.8258L45.2586 80.285C47.8785 82.5489 51.5189 83.3437 54.931 83.2309C61.8281 83.0052 68.9233 81.887 75.8454 81.6213C77.5678 81.3104 79.4356 79.7309 78.4879 77.8405V77.8431Z" fill="black"/>
<path d="M83.9657 32.823C85.1265 32.5622 85.9564 33.8609 85.2243 34.8186L76.7127 42.8314C75.5744 44.1802 73.5838 42.8389 74.6318 41.3622L83.1434 33.347C83.349 33.184 83.7276 32.8756 83.9683 32.8205L83.9657 32.823Z" fill="black"/>
<path d="M71.6439 47.0428C72.321 47.0428 72.8699 46.4939 72.8699 45.8168C72.8699 45.1397 72.321 44.5908 71.6439 44.5908C70.9669 44.5908 70.418 45.1397 70.418 45.8168C70.418 46.4939 70.9669 47.0428 71.6439 47.0428Z" fill="black"/>
</svg>
