<svg width="109" height="109" viewBox="0 0 109 109" fill="none" xmlns="http://www.w3.org/2000/svg">
<rect width="109" height="109" rx="20" fill="#8AC53F"/>
<path d="M83.991 63.0706C82.1582 58.5842 78.5795 55.2312 74.1601 53.8622L75.7126 32.5264C75.7597 28.2731 72.8283 24.7688 68.5824 24H68.5725H31.1586C27.7485 24.367 24.4128 27.7002 24.026 31.1351C23.9838 31.517 24.0012 31.9361 24.021 32.3404C24.0384 32.6975 24.0532 33.067 24.026 33.4217L26.6598 69.8139C27.3591 73.9084 30.8535 76.7754 35.1589 76.7828L54.9571 76.7977C56.8618 80.3317 60.0883 83.0176 64.0539 84.3668C65.8172 84.967 67.6227 85.2646 69.4033 85.2646C71.6726 85.2646 73.9046 84.7809 75.9606 83.8187L76.1193 83.7443C76.965 83.3549 78.5373 82.6307 78.019 81.4949C77.895 81.2221 77.7164 81.0485 77.4858 80.979C76.9749 80.8278 76.3425 81.2246 75.8366 81.5445C75.6655 81.6511 75.5043 81.7553 75.3803 81.8123C70.0209 84.3197 64.0093 83.4095 59.6915 79.4365C55.4308 75.518 54.0494 69.6651 56.083 64.1619C58.2605 58.2742 64.478 54.5145 70.8691 55.2213C75.5216 55.7347 79.574 58.6462 81.7068 63.0086C83.862 67.4182 83.6636 72.4675 81.1761 76.515C81.0769 76.6762 80.8884 76.9266 80.6851 77.192C80.075 77.9955 79.6112 78.6354 79.6335 78.9851C79.6509 79.2852 79.7898 79.5307 80.0278 79.6944C80.318 79.8928 80.7322 79.9424 81.1067 79.8209C81.7019 79.6299 83.1924 77.1771 83.3338 76.9192C85.6303 72.7254 85.8709 67.6786 83.9885 63.0756L83.991 63.0706ZM53.0772 69.6254H38.9707C38.8814 69.6254 38.4028 69.9106 38.3805 69.9329C38.1275 70.1884 38.0308 70.5554 38.1225 70.915C38.2143 71.2721 38.4722 71.5449 38.817 71.6491L38.8343 71.6541L53.3376 71.659L53.9998 74.6301H33.8569C31.4289 74.3375 29.0679 72.0013 28.7033 69.5312L26.0546 32.6355C25.943 29.0395 28.4702 26.2593 32.0563 26.0262L67.8905 26.0336C69.6762 26.2072 71.1741 27.0033 72.2256 28.3376C73.3689 29.7859 73.8426 31.6906 73.5599 33.7094L72.1364 53.3985C68.1956 52.5478 63.9051 53.4158 60.3413 55.7892C56.6262 58.2643 54.0791 62.0786 53.35 66.25C53.1516 67.3884 53.0574 68.5218 53.0698 69.6254H53.0772Z" fill="black"/>
<path d="M71.668 60.0797C71.1918 59.172 70.299 58.6115 69.2772 58.5817C68.2455 58.547 67.3031 59.0629 66.7674 59.9532C66.5889 60.2483 66.2962 61.0221 66.2962 61.3495V70.7215C64.8628 69.9081 63.4615 70.4339 62.6853 71.3515C61.8743 72.3113 61.5965 73.8712 62.8093 75.1955C63.5979 76.0561 66.3607 78.4518 67.3602 79.1413C68.0174 79.5927 68.5977 79.7886 69.1458 79.7886C69.9295 79.7886 70.6487 79.3893 71.4324 78.7767C72.4393 77.9881 75.3856 75.5576 75.9783 74.6946C76.5983 73.7918 76.6033 72.6957 75.9907 71.7607C75.3161 70.7265 74.0885 70.1809 72.9378 70.3991C72.7096 70.4413 72.5112 70.5405 72.3203 70.6347C72.2161 70.6843 72.1169 70.7339 72.0177 70.7736V60.8758C72.0177 60.7666 71.673 60.0896 71.668 60.0822V60.0797ZM74.2076 73.5736L69.6741 77.5665C69.1979 77.9261 68.811 77.631 68.3646 77.2912L68.3398 77.2738C67.5214 76.6489 64.6644 74.2507 64.2551 73.6703C63.9848 73.2859 63.9923 72.8916 64.275 72.6089C64.4288 72.4551 64.585 72.3881 64.7512 72.3881C65.1331 72.3881 65.5597 72.7502 66.0978 73.2512C66.4872 73.6133 66.8542 73.9555 67.199 74.02C67.4618 74.0696 67.7099 74.0101 67.9207 73.8514C68.2083 73.6331 68.4117 73.2314 68.4514 72.8023C68.625 70.8976 68.5456 68.8243 68.4688 66.8204C68.3968 64.9579 68.3224 63.0334 68.4514 61.2577C68.5258 60.7914 68.9102 60.6526 69.2128 60.6749C69.5823 60.7022 69.9816 60.9601 69.989 61.466L70.0411 73.3281V73.3628L70.0585 73.3926C70.2891 73.7695 70.5446 73.9729 70.8397 74.0126C71.3654 74.087 71.8863 73.6083 72.3847 73.1446C72.8063 72.7552 73.2404 72.3559 73.6049 72.3733C73.8281 72.3857 74.0315 72.527 74.1604 72.7552C74.3068 73.0181 74.3241 73.3355 74.2076 73.5736Z" fill="black"/>
<path d="M63.9847 43.1485C66.0952 42.464 66.1225 40.3138 66.1448 38.4191C66.1498 37.9801 66.1547 37.5659 66.1845 37.1765C66.2267 36.6086 66.301 35.9613 66.3804 35.2768C66.5391 33.8806 66.7053 32.4372 66.6532 31.3385C66.5838 29.8679 65.2693 28.6378 63.7764 28.6378C63.7664 28.6378 63.754 28.6378 63.7441 28.6378H43.2441C42.7729 28.6824 42.4083 28.9428 42.2744 29.3421C42.1305 29.7637 42.2694 30.2399 42.6389 30.5821L42.6737 30.6143L63.5036 30.6689C63.8929 30.6763 64.1583 30.7656 64.3195 30.9392C64.5849 31.2244 64.5551 31.7452 64.5253 32.2958C64.5204 32.4049 64.5129 32.519 64.5105 32.6306C64.4311 34.8974 64.2476 37.5411 64.0343 39.5326C64.0269 39.5971 64.0219 39.669 64.0145 39.7459C63.9772 40.1799 63.9152 40.8966 63.6226 41.0628L36.0842 41.0901C35.8932 40.9859 35.7494 40.6288 35.6998 40.1278C35.5634 38.7638 35.5014 37.365 35.4418 36.0109C35.3749 34.4832 35.303 32.901 35.1269 31.3608C35.2286 30.5747 36.4041 30.6342 37.4432 30.6888C38.0806 30.721 38.6287 30.7508 38.9585 30.6044C39.1793 30.5077 39.343 30.2696 39.4074 29.9522C39.4868 29.5702 39.4074 29.1685 39.2065 28.9527C38.7775 28.4865 36.042 28.6179 35.7444 28.6477C34.0629 28.8138 33.0139 30.0588 33.0684 31.8147C33.118 33.4267 33.2793 37.5089 33.6835 40.6213C33.8993 42.2879 34.8838 43.1659 36.7042 43.3072C40.206 43.2651 43.7698 43.2849 47.2196 43.3072C49.1763 43.3171 51.1579 43.3295 53.1494 43.3295C56.743 43.3295 60.3713 43.2923 63.95 43.1559L63.9822 43.151L63.9847 43.1485Z" fill="black"/>
<path d="M53.0152 34.0065C53.174 34.0115 53.4195 34.1082 53.6774 34.2124C54.1635 34.4058 54.7165 34.6241 55.1208 34.4331C55.3093 34.3438 55.4457 34.1777 55.525 33.9346C55.6565 33.5304 55.5994 33.1708 55.3539 32.8608C54.786 32.1465 53.3451 31.9233 52.549 31.9952C51.2246 32.1168 50.1061 32.8533 49.4812 34.0165C48.824 35.2391 48.8314 36.7148 49.4985 37.9597C50.0441 38.9766 51.1031 39.6958 52.3357 39.8843C52.544 39.9165 52.7499 39.9314 52.9532 39.9314C53.8832 39.9314 54.7413 39.5991 55.3762 38.984C55.9268 38.4483 56.7774 36.685 56.4922 35.6781C56.3881 35.3086 56.1351 35.068 55.7631 34.9837C55.4333 34.9093 53.6799 34.8944 53.3699 34.9837C53.1888 35.0358 52.8069 35.4177 52.7523 35.6012C52.6035 36.0997 52.7573 36.4147 52.9135 36.5908C53.1814 36.8958 53.6799 37.0496 54.2255 37.0074C54.0717 37.4489 53.7468 37.6572 53.4889 37.7539C52.9607 37.9523 52.2762 37.8407 51.7876 37.4786C51.1205 36.9826 50.8749 36.1319 51.1601 35.3135C51.4478 34.4902 52.1869 33.9793 53.0152 34.0016V34.0065Z" fill="black"/>
<path d="M43.1891 38.8501C43.2585 39.6189 43.7595 39.9215 44.1662 39.9463C44.1885 39.9463 44.2109 39.9463 44.2332 39.9463C44.6994 39.9463 45.0962 39.6363 45.1954 39.1899C45.2426 38.9766 45.2326 38.7559 45.2227 38.5451C45.2153 38.369 45.2078 38.2028 45.2302 38.0441C45.374 38.178 45.5402 38.3566 45.7138 38.5451C46.3685 39.2494 47.1869 40.1273 47.8788 39.914C48.1442 39.8322 48.3575 39.6462 48.4765 39.3858C48.6204 39.0758 48.6229 38.6963 48.484 38.369C48.3625 38.0838 47.7028 37.501 46.7827 36.7073C46.4007 36.3775 45.9717 36.0105 45.8452 35.8641C46.0287 35.6508 46.3586 35.378 46.7033 35.0904C47.5936 34.3488 48.603 33.5081 48.3823 32.7765C48.2657 32.3896 48.0673 32.1565 47.7896 32.0821C47.0877 31.8911 46.0907 32.8162 45.431 33.4287C45.374 33.4808 45.3219 33.5304 45.2723 33.5775C45.3244 32.8831 45.0417 32.2383 44.5605 32.0275C44.3572 31.9382 43.819 31.8142 43.2684 32.6227L43.2461 32.655V32.6946C43.2635 33.4907 43.2263 34.3563 43.1916 35.192C43.1395 36.4246 43.0849 37.6994 43.1916 38.8501H43.1891Z" fill="black"/>
</svg>
