<svg width="109" height="109" viewBox="0 0 109 109" fill="none" xmlns="http://www.w3.org/2000/svg">
<rect width="109" height="109" rx="20" fill="#8AC53F"/>
<path d="M39.3615 70.7892C38.9538 69.7386 38.2751 68.8167 37.7896 67.8037C36.9313 66.0108 36.1695 63.8963 35.6706 61.9694C35.4184 60.9966 35.2924 59.2385 34.9839 58.464C34.8015 58.0111 33.8734 57.0356 33.5488 56.4272C31.5344 52.6216 32.551 48.4355 35.6679 45.6269C37.9318 43.5901 40.7805 41.9178 43.0497 39.8462L43.0873 35.9066C41.9822 34.245 40.3996 33.433 41.5047 31.2194C41.7461 30.7343 42.8405 29.4586 42.9049 29.1692C42.9585 28.9173 42.7949 28.3277 42.8351 27.9203C42.9237 27.0064 43.5084 26.5455 44.2836 26.189C46.3356 25.243 49.4391 24.7231 51.3275 23.6859C52.4058 23.0937 52.5909 21.877 54.4417 21.3034C57.9717 20.21 59.5462 22.2414 61.4131 24.6856C63.559 27.4969 65.9195 31.6133 68.2263 34.0708C69.5782 35.5127 71.8287 36.7294 73.2906 38.1203C73.8432 38.6482 74.3045 39.1816 74.208 40.0284C74.0765 41.1862 72.8319 43.1238 72.4993 44.3298C73.2852 44.4879 74.1087 45.2437 74.4091 45.9673L76.6891 57.8583L85.6294 78.1297C87.1047 82.8652 84.0227 87.5605 79.0898 88C70.2568 87.6275 61.2602 87.657 53.3258 83.2752C52.1161 84.0256 50.8822 84.5509 49.4981 84.8912C48.9187 85.0333 48.106 85.0038 47.6044 85.1673C46.5743 85.4996 45.9011 86.4563 44.3212 86.6573C42.6313 86.8717 36.8857 86.928 35.2763 86.6573C34.6862 86.5582 34.0236 86.1401 33.6481 85.6818C33.2725 85.2235 32.9721 84.114 32.8568 84.0149C32.669 83.8541 31.4995 83.5968 31.1213 83.436C27.4411 81.8655 22.6585 79.3222 24.351 74.5063C24.8768 73.0109 26.9073 70.7865 28.5865 70.7865H39.3669L39.3615 70.7892ZM41.9982 43.6384C42.1726 45.8493 41.333 48.993 42.7761 50.8234C44.1978 52.6297 46.4241 52.3376 48.4869 52.217C48.739 52.0401 49.7234 47.0473 50.0265 46.2379C50.8339 44.094 51.8881 43.156 52.2395 40.4974C52.3763 39.4496 52.2073 37.6218 52.4219 36.7749C52.505 36.4426 55.5924 31.3158 55.9411 30.8924C56.55 30.1581 57.1294 30.0991 57.8885 30.6646C59.2511 31.6749 62.4136 35.0035 63.6019 36.3756C64.7902 37.7478 65.8631 39.7872 67.0675 41.0093C67.9339 41.8857 69.3744 42.5423 70.2568 43.4588L71.7643 39.9346C70.2166 38.4472 67.9312 37.2011 66.4935 35.6574C63.5107 32.4575 61.1395 27.6416 58.1782 24.3023C56.939 22.9436 54.7528 23.1017 53.7121 24.6186L46.6307 39.5192C45.4665 41.2719 43.6372 42.3895 41.9982 43.6384ZM50.0695 26.6956L45.2117 28.4215C46.0862 29.8418 43.5165 31.7044 43.5567 32.5379C43.5862 33.1597 45.0883 34.2397 45.3297 34.974C45.5041 35.5073 45.437 35.9817 45.4424 36.5257L50.0695 26.6956ZM51.2282 51.1262H54.0501C55.8982 51.1262 58.3472 49.1377 59.1117 47.5082C60.5735 44.3995 58.9373 43.1988 59.2055 40.5162C59.345 39.1065 60.0532 38.1015 60.9142 37.0483L57.1643 33.3419L54.7367 37.4985C54.7797 40.0606 54.4471 42.5047 53.4251 44.8604C53.1086 45.5894 52.5426 46.3532 52.2717 47.0339C51.7862 48.264 51.6574 49.8479 51.2282 51.1235V51.1262ZM67.486 58.3059C64.6615 55.4463 67.2258 53.096 68.0546 50.3731C68.5643 48.7008 68.3551 47.0205 69.0176 45.4366C68.9532 45.2195 65.8927 43.156 65.4018 42.6736C64.4254 41.7115 63.7039 40.1544 62.7784 39.2218C62.6792 39.1226 62.6551 38.927 62.4431 38.9832C60.8069 40.484 61.8906 42.017 62.0596 43.6973C62.4485 47.527 60.2999 51.3245 56.7217 52.7851C54.6938 53.6132 52.8081 53.4364 50.6596 53.4524C50.3994 55.5616 48.959 58.2335 49.4659 60.3266C49.7851 61.6451 51.2094 62.7654 51.8344 63.9606C56.8236 64.3519 60.5709 67.7153 62.5183 72.156L73.2208 75.7043C70.6699 70.8026 70.2515 65.3274 69.7445 59.9139C69.6962 59.7825 67.832 58.6596 67.4833 58.3059H67.486ZM39.6512 45.6323L37.4114 47.2268C35.2924 48.9286 34.3374 51.5925 35.1582 54.2403C35.7135 56.0332 37.3578 56.9927 37.4973 58.9169L47.2262 57.0677L47.8994 54.5968H44.7879C42.8593 54.5968 39.6512 51.5496 39.6512 49.6093V45.6323ZM74.0765 57.183L72.3169 47.1893C72.156 46.6989 71.9923 46.4604 71.4478 46.5247C70.7048 46.6131 70.973 47.5994 70.8899 48.1434C70.6538 49.7112 70.3936 50.9145 69.774 52.3804C69.3288 53.439 68.4087 54.4547 68.626 55.6473C68.8432 56.8399 70.1764 57.2392 71.016 57.8958L74.0738 57.183H74.0765ZM47.0303 59.5145L37.9157 61.2512C38.7446 64.4296 40.0723 67.4848 41.9097 70.205L49.4927 64.7861C48.393 63.1807 46.9043 61.6183 47.033 59.5145H47.0303ZM72.2311 60.1095C72.4215 64.5288 72.9499 68.9668 74.6023 73.0993C75.0261 74.1606 76.5657 76.7146 76.673 77.5508C76.7857 78.4298 75.9595 79.1588 75.1012 78.8211L61.1154 74.1445C60.367 73.7345 59.3906 71.2394 58.7308 70.3095C57.0919 68.0074 54.1091 66.2654 51.239 66.386L43.6372 71.9469L43.4306 72.2873C49.4713 79.7886 58.5108 84.2346 68.0922 85.1003C71.2654 85.387 75.2031 85.6523 78.3629 85.6925C82.019 85.7354 84.5699 82.2675 83.3628 78.8077L74.9483 59.745L74.723 59.5253L72.2337 60.1095H72.2311ZM46.3088 78.596C45.0454 77.3873 43.7418 76.1893 42.5428 74.9137C42.1565 74.5036 41.3303 73.1905 40.8797 73.1074L29.0559 73.1422C27.0602 73.504 25.7646 75.7472 26.6471 77.6419C27.5296 79.5366 31.5827 81.0669 33.3906 81.7557L33.581 81.7181C35.3675 78.2422 38.8492 79.065 42.0519 78.8934C43.4467 78.8184 44.871 78.3762 46.3142 78.596H46.3088ZM50.7937 82.0665L50.555 81.6565L48.6263 80.4773L48.916 82.5007L50.7964 82.0639L50.7937 82.0665ZM44.399 80.9543C43.3958 81.016 42.3067 81.284 41.3169 81.3429C38.8492 81.4877 35.7242 80.547 35.338 83.9881C35.4828 84.3794 35.7537 84.3552 36.1024 84.3901C37.6931 84.5482 43.4735 84.5589 44.7986 84.098C45.9118 83.7094 47.1966 82.7714 46.3785 81.4957C45.8984 80.748 45.1554 80.9088 44.4016 80.9543H44.399Z" fill="black"/>
</svg>
