<svg width="72" height="62" viewBox="0 0 72 62" fill="none" xmlns="http://www.w3.org/2000/svg">
<path d="M49.4015 5.42278C50.073 5.29686 50.6671 4.90847 51.0531 4.34305C51.4392 3.77763 51.5856 3.0815 51.4601 2.40779C51.3346 1.73409 50.9475 1.13799 50.3839 0.750649C49.8204 0.363304 49.1266 0.216437 48.4552 0.342356C43.2694 1.31775 38.9495 3.93386 36.0525 7.75144C32.4279 2.90679 26.6016 0 19.9576 0C14.6664 0.00598391 9.59352 2.11763 5.85204 5.87167C2.11055 9.6257 0.00596391 14.7156 0 20.0246C0 42.6329 33.4097 60.936 34.8325 61.6886C35.2069 61.8929 35.6263 62 36.0525 62C36.4787 62 36.8981 61.8929 37.2725 61.6886C41.892 59.0904 46.3131 56.1518 50.4992 52.8971C50.778 52.6942 51.0134 52.4373 51.1915 52.1414C51.3696 51.8456 51.4867 51.517 51.536 51.1749C51.5852 50.8329 51.5656 50.4844 51.4782 50.1501C51.3908 49.8158 51.2375 49.5025 51.0273 49.2287C50.8171 48.955 50.5543 48.7263 50.2545 48.5562C49.9546 48.3862 49.6238 48.2782 49.2817 48.2387C48.9395 48.1992 48.5929 48.2289 48.2624 48.3262C47.9319 48.4235 47.6242 48.5863 47.3575 48.805C44.0387 51.3694 40.9196 53.4462 38.6276 54.8834V13.4681C40.5075 9.28558 44.4025 6.36264 49.4015 5.42278ZM33.4773 54.906C24.9728 49.5479 5.15035 35.4338 5.15035 20.0246C5.15546 16.0858 6.71715 12.3099 9.49294 9.52478C12.2687 6.73968 16.0321 5.17275 19.9576 5.16763C26.0447 5.16763 31.1789 8.32634 33.4773 13.4487V54.906ZM69.7068 20.6705C69.6114 20.6753 69.5157 20.6753 69.4203 20.6705C68.787 20.6696 68.1763 20.4346 67.7048 20.0104C67.2333 19.5861 66.9341 19.0025 66.8644 18.3709C66.6271 16.2193 65.9229 14.1459 64.8011 12.2968C63.6794 10.4476 62.1675 8.86741 60.3718 7.66747C60.0814 7.48294 59.8308 7.24196 59.6348 6.95874C59.4387 6.67552 59.3011 6.35578 59.2301 6.01837C59.1591 5.68095 59.1562 5.3327 59.2214 4.99413C59.2867 4.65555 59.4188 4.33351 59.6101 4.04698C59.8013 3.76044 60.0478 3.51522 60.3349 3.32576C60.6221 3.1363 60.9442 3.00644 61.2822 2.94382C61.6202 2.88121 61.9672 2.88711 62.3029 2.96118C62.6386 3.03525 62.9561 3.17599 63.2367 3.37511C65.6563 4.99292 67.6933 7.12303 69.2043 9.6156C70.7153 12.1082 71.6637 14.9027 71.9826 17.8025C72.022 18.1409 71.9943 18.4838 71.9011 18.8115C71.8079 19.1391 71.651 19.445 71.4395 19.7116C71.2279 19.9782 70.966 20.2001 70.6686 20.3647C70.3712 20.5293 70.0444 20.6332 69.7068 20.6705ZM69.034 32.1749C67.2089 35.8472 64.5468 39.6034 61.1186 43.3144C60.8922 43.5753 60.616 43.7879 60.3063 43.9396C59.9965 44.0914 59.6595 44.1792 59.3153 44.1979C58.9711 44.2166 58.6267 44.1657 58.3024 44.0483C57.9781 43.9309 57.6807 43.7494 57.4276 43.5146C57.1746 43.2797 56.9711 42.9963 56.8293 42.681C56.6874 42.3658 56.6101 42.0252 56.6019 41.6794C56.5937 41.3337 56.6547 40.9897 56.7814 40.6681C56.9081 40.3464 57.0979 40.0536 57.3395 39.8069C60.4329 36.4479 62.8118 33.1051 64.4213 29.8689C64.5656 29.5546 64.7714 29.2727 65.0265 29.0397C65.2815 28.8068 65.5806 28.6277 65.9059 28.5129C66.2313 28.3981 66.5763 28.3501 66.9205 28.3717C67.2647 28.3933 67.6011 28.484 67.9097 28.6385C68.2183 28.793 68.4928 29.0081 68.7169 29.2711C68.9411 29.534 69.1103 29.8395 69.2146 30.1693C69.3189 30.4992 69.356 30.8466 69.3239 31.1912C69.2918 31.5357 69.191 31.8702 69.0276 32.1749H69.034Z" fill="#8AC53F"/>
</svg>
