<svg width="77" height="68" viewBox="0 0 77 68" fill="none" xmlns="http://www.w3.org/2000/svg">
<path d="M75.7254 19.7136L39.631 0.284955C39.2828 0.0978561 38.8944 0 38.5 0C38.1056 0 37.7172 0.0978561 37.369 0.284955L1.27459 19.7136C0.889591 19.9207 0.567617 20.2295 0.343108 20.607C0.118598 20.9846 0 21.4166 0 21.8569C0 22.2972 0.118598 22.7292 0.343108 23.1067C0.567617 23.4842 0.889591 23.793 1.27459 24.0001L9.62444 28.496V43.195C9.62193 44.3879 10.0569 45.5396 10.8456 46.4281C14.7859 50.8572 23.614 58.2857 38.5 58.2857C43.4358 58.3269 48.3346 57.4245 52.9378 55.6264V65.5714C52.9378 66.2155 53.1913 66.8332 53.6426 67.2887C54.0938 67.7441 54.7059 68 55.3441 68C55.9823 68 56.5943 67.7441 57.0456 67.2887C57.4969 66.8332 57.7504 66.2155 57.7504 65.5714V53.2797C60.8882 51.4516 63.7237 49.1398 66.1544 46.4281C66.9431 45.5396 67.3781 44.3879 67.3756 43.195V28.496L75.7254 24.0001C76.1104 23.793 76.4324 23.4842 76.6569 23.1067C76.8814 22.7292 77 22.2972 77 21.8569C77 21.4166 76.8814 20.9846 76.6569 20.607C76.4324 20.2295 76.1104 19.9207 75.7254 19.7136ZM38.5 53.4285C25.4849 53.4285 17.8299 47.0109 14.437 43.195V31.0855L37.369 43.4288C37.7172 43.6159 38.1056 43.7137 38.5 43.7137C38.8944 43.7137 39.2828 43.6159 39.631 43.4288L52.9378 36.2675V50.3351C49.1479 52.1201 44.3714 53.4285 38.5 53.4285ZM62.563 43.1829C61.1205 44.7983 59.5067 46.249 57.7504 47.5088V33.675L62.563 31.0855V43.1829ZM56.5472 28.8208L56.4811 28.7814L39.637 19.7136C39.075 19.4239 38.4227 19.3686 37.8207 19.5596C37.2187 19.7507 36.7152 20.1727 36.4185 20.7348C36.1219 21.297 36.0559 21.9542 36.2349 22.565C36.4138 23.1757 36.8232 23.6911 37.3751 24.0001L51.4338 31.5712L38.5 38.5321L7.51893 21.8569L38.5 5.18159L69.4811 21.8569L56.5472 28.8208Z" fill="#8AC53F"/>
</svg>
