<svg width="75" height="50" viewBox="0 0 75 50" fill="none" xmlns="http://www.w3.org/2000/svg">
<path d="M74.7844 23.9875C74.675 23.7406 72.0282 17.8687 66.1438 11.9844C58.3031 4.14375 48.4 0 37.5 0C26.6 0 16.6969 4.14375 8.85623 11.9844C2.97185 17.8687 0.31247 23.75 0.215595 23.9875C0.0734488 24.3072 0 24.6532 0 25.0031C0 25.353 0.0734488 25.699 0.215595 26.0187C0.32497 26.2656 2.97185 32.1344 8.85623 38.0188C16.6969 45.8563 26.6 50 37.5 50C48.4 50 58.3031 45.8563 66.1438 38.0188C72.0282 32.1344 74.675 26.2656 74.7844 26.0187C74.9266 25.699 75 25.353 75 25.0031C75 24.6532 74.9266 24.3072 74.7844 23.9875ZM37.5 45C27.8812 45 19.4781 41.5031 12.5219 34.6094C9.66762 31.7709 7.23931 28.5342 5.31247 25C7.23879 21.4654 9.66715 18.2287 12.5219 15.3906C19.4781 8.49687 27.8812 5 37.5 5C47.1188 5 55.5219 8.49687 62.4781 15.3906C65.3379 18.228 67.7716 21.4647 69.7031 25C67.45 29.2062 57.6344 45 37.5 45ZM37.5 10C34.5333 10 31.6332 10.8797 29.1664 12.528C26.6997 14.1762 24.7771 16.5189 23.6418 19.2597C22.5065 22.0006 22.2094 25.0166 22.7882 27.9264C23.367 30.8361 24.7956 33.5088 26.8934 35.6066C28.9912 37.7044 31.6639 39.133 34.5736 39.7118C37.4834 40.2906 40.4994 39.9935 43.2403 38.8582C45.9811 37.7229 48.3238 35.8003 49.9721 33.3336C51.6203 30.8668 52.5 27.9667 52.5 25C52.4959 21.023 50.9142 17.2101 48.102 14.398C45.2899 11.5858 41.477 10.0041 37.5 10ZM37.5 35C35.5222 35 33.5888 34.4135 31.9443 33.3147C30.2998 32.2159 29.0181 30.6541 28.2612 28.8268C27.5043 26.9996 27.3063 24.9889 27.6921 23.0491C28.078 21.1093 29.0304 19.3275 30.4289 17.9289C31.8274 16.5304 33.6093 15.578 35.5491 15.1921C37.4889 14.8063 39.4996 15.0043 41.3268 15.7612C43.1541 16.5181 44.7159 17.7998 45.8147 19.4443C46.9135 21.0888 47.5 23.0222 47.5 25C47.5 27.6522 46.4464 30.1957 44.5711 32.0711C42.6957 33.9464 40.1522 35 37.5 35Z" fill="#8AC53F"/>
</svg>
